<svg width="23" height="24" viewBox="0 0 23 24" fill="none" xmlns="http://www.w3.org/2000/svg">
<path d="M21.2057 6.00598H22.1057V5.10598H21.2057V6.00598ZM1.21582 6.00598V5.10598H0.31582V6.00598H1.21582ZM7.11324 6.00598V4.45346H5.31324V6.00598H7.11324ZM7.11324 4.45346C7.11324 3.61294 7.41877 2.99436 7.86315 2.58104C8.31643 2.15944 8.96447 1.90598 9.71143 1.90598V0.105981C8.55937 0.105981 7.45832 0.49934 6.63725 1.26302C5.80729 2.03498 5.31324 3.14014 5.31324 4.45346H7.11324ZM9.71143 1.90598H12.7099V0.105981H9.71143V1.90598ZM12.7099 1.90598C13.5155 1.90598 14.1565 2.16449 14.5892 2.57495C15.0153 2.9792 15.3081 3.59529 15.3081 4.45346H17.1081C17.1081 3.15778 16.6513 2.05014 15.828 1.26911C15.0113 0.494289 13.9032 0.105981 12.7099 0.105981V1.90598ZM15.3081 4.45346V6.00598H17.1081V4.45346H15.3081ZM21.2057 5.10598H1.21582V6.90598H21.2057V5.10598ZM0.31582 6.00598V18.7061H2.11582V6.00598H0.31582ZM0.31582 18.7061C0.31582 21.0245 1.84798 23.3561 4.24458 23.3561V21.5561C3.20858 21.5561 2.11582 20.4416 2.11582 18.7061H0.31582ZM4.24458 23.3561H18.177V21.5561H4.24458V23.3561ZM18.177 23.3561C20.5599 23.3561 22.1057 21.143 22.1057 18.7061H20.3057C20.3057 20.5259 19.2266 21.5561 18.177 21.5561V23.3561ZM22.1057 18.7061V6.00598H20.3057V18.7061H22.1057Z" fill="#0F111D"/>
</svg>
