<svg width="21" height="22" viewBox="0 0 21 22" fill="none" xmlns="http://www.w3.org/2000/svg">
<path d="M2.73255 2.47915L2.54287 2.07895H2.1H0.7V1.37896H2.98579L3.79346 3.07929L3.98329 3.47896H4.42575H19.95C20.1432 3.47896 20.3 3.63508 20.3 3.82895C20.3 3.89269 20.2836 3.94599 20.261 3.98566L20.2609 3.98562L20.2556 3.99521L16.5045 10.805C16.5041 10.8057 16.5037 10.8065 16.5033 10.8072C16.2586 11.2416 15.7989 11.529 15.2775 11.529H7.455H7.04078L6.84141 11.892L5.90359 13.6C5.81819 13.7524 5.78375 13.9142 5.78375 14.0665C5.78375 14.6001 6.21265 15.029 6.74625 15.029H18.2V15.729H6.3C5.52635 15.729 4.9 15.1026 4.9 14.329C4.9 14.0861 4.96141 13.8587 5.07267 13.6493L6.48784 11.081L6.66076 10.7672L6.5073 10.4434L2.73255 2.47915ZM4.9105 19.579C4.9105 18.8007 5.53092 18.179 6.3 18.179C7.07365 18.179 7.7 18.8053 7.7 19.579C7.7 20.3526 7.07365 20.979 6.3 20.979C5.53092 20.979 4.9105 20.3572 4.9105 19.579ZM15.4105 19.579C15.4105 18.8007 16.0309 18.179 16.8 18.179C17.5737 18.179 18.2 18.8053 18.2 19.579C18.2 20.3526 17.5737 20.979 16.8 20.979C16.0309 20.979 15.4105 20.3572 15.4105 19.579Z" stroke="white" stroke-width="1.4"/>
</svg>
