<svg width="51" height="51" viewBox="0 0 51 51" fill="none" xmlns="http://www.w3.org/2000/svg">
<path d="M25.5 0.5C11.7144 0.5 0.5 11.7144 0.5 25.5C0.5 39.2856 11.7144 50.5 25.5 50.5C39.2856 50.5 50.5 39.2856 50.5 25.5C50.5 11.7144 39.2856 0.5 25.5 0.5Z" fill="#F32B37"/>
<path d="M38.1701 20.2018L24.6283 33.7433C24.222 34.1495 23.6888 34.354 23.1555 34.354C22.6222 34.354 22.0889 34.1495 21.6826 33.7433L14.9119 26.9725C14.0971 26.1581 14.0971 24.8413 14.9119 24.0268C15.7263 23.212 17.0428 23.212 17.8576 24.0268L23.1555 29.3247L35.2244 17.2561C36.0388 16.4413 37.3553 16.4413 38.1701 17.2561C38.9845 18.0706 38.9845 19.387 38.1701 20.2018Z" fill="white"/>
</svg>
