<svg width="69" height="30" viewBox="0 0 69 30" fill="none" xmlns="http://www.w3.org/2000/svg">
<g clip-path="url(#clip0_607_6089)">
<path d="M36.8233 4.63867H34.106V14.164H36.8233V4.63867Z" fill="#A7AABB"/>
<path d="M35.4647 3.46474C36.426 3.46474 37.2053 2.68935 37.2053 1.73285C37.2053 0.776367 36.426 0.000976562 35.4647 0.000976562C34.5034 0.000976562 33.7241 0.776367 33.7241 1.73285C33.7241 2.68935 34.5034 3.46474 35.4647 3.46474Z" fill="#A7AABB"/>
<path d="M43.7522 19.1336C43.3177 18.4105 42.6922 17.8199 41.9439 17.4257C41.1175 17.0175 40.2073 16.8052 39.2847 16.8052C38.362 16.8052 37.4518 17.0175 36.6254 17.4257C35.8663 17.8154 35.2304 18.4065 34.7881 19.1336C34.3543 19.887 34.126 20.7403 34.126 21.6087C34.126 22.4771 34.3543 23.3304 34.7881 24.0839C35.2275 24.8132 35.8642 25.405 36.6254 25.7917C37.4518 26.1999 38.362 26.4123 39.2847 26.4123C40.2073 26.4123 41.1175 26.1999 41.9439 25.7917C42.7015 25.4033 43.3345 24.8117 43.7716 24.0839C44.2054 23.3304 44.4337 22.4771 44.4337 21.6087C44.4337 20.7403 44.2054 19.887 43.7716 19.1336H43.7522ZM39.2702 24.233C38.7347 24.233 38.2112 24.075 37.7659 23.779C37.3206 23.4829 36.9736 23.0622 36.7687 22.5699C36.5637 22.0776 36.5101 21.5359 36.6146 21.0134C36.719 20.4908 36.9769 20.0107 37.3556 19.6339C37.7343 19.2572 38.2167 19.0006 38.742 18.8967C39.2672 18.7927 39.8116 18.8461 40.3064 19.05C40.8011 19.2539 41.2239 19.5992 41.5214 20.0422C41.819 20.4853 41.9778 21.0061 41.9778 21.5389C41.9778 22.2535 41.6925 22.9387 41.1847 23.4439C40.677 23.9492 39.9883 24.233 39.2702 24.233Z" fill="#A7AABB"/>
<path d="M29.6239 12.7734C30.2105 12.5157 30.7214 12.1133 31.1082 11.6044H31.3065C30.8589 12.1348 30.2785 12.5381 29.6239 12.7734ZM25.2724 11.8449C24.9357 11.5147 24.6684 11.1211 24.4859 10.6871C24.3035 10.2531 24.2095 9.78735 24.2095 9.31687C24.2095 8.84645 24.3035 8.3807 24.4859 7.94674C24.6684 7.51272 24.9357 7.11914 25.2724 6.78885C24.6442 7.48249 24.2965 8.38312 24.2965 9.31687C24.2965 10.2506 24.6442 11.1513 25.2724 11.8449ZM31.1082 7.03416C30.7216 6.52399 30.2108 6.12002 29.6239 5.86035C30.2788 6.09747 30.8592 6.50241 31.3065 7.03416H31.1082Z" fill="#A7AABB"/>
<path d="M28.1737 4.51826C26.8626 4.48987 25.5939 4.9807 24.6464 5.88282C23.699 6.78496 23.1503 8.02453 23.1211 9.32901C23.135 9.97517 23.2767 10.6122 23.5381 11.2038C23.7996 11.7954 24.1757 12.3299 24.645 12.7766C25.1143 13.2235 25.6675 13.5738 26.273 13.8078C26.8785 14.0417 27.5244 14.1545 28.1737 14.1398C29.2707 14.1549 30.3425 13.8116 31.2246 13.1624C32.1066 12.5133 32.7504 11.5942 33.0571 10.5461H30.5091C30.2367 11.0894 29.7879 11.5251 29.2354 11.7828C28.6829 12.0405 28.0592 12.1049 27.4653 11.9657C26.8714 11.8265 26.3422 11.4917 25.9634 11.0158C25.5847 10.5399 25.3786 9.95053 25.3786 9.34344C25.3786 8.7364 25.5847 8.14707 25.9634 7.67111C26.3422 7.19515 26.8714 6.86042 27.4653 6.72121C28.0592 6.582 28.6829 6.64644 29.2354 6.90409C29.7879 7.16175 30.2367 7.59755 30.5091 8.14078H33.0571C32.7513 7.09176 32.1079 6.17163 31.2257 5.52158C30.3436 4.87153 29.2714 4.5275 28.1737 4.54231V4.51826Z" fill="#A7AABB"/>
<path d="M10.3275 1.10742H7.61504V5.43712C6.89268 4.9205 6.04108 4.61219 5.15398 4.54611C4.26686 4.48004 3.37862 4.65876 2.58702 5.06261C1.79541 5.46646 1.13113 6.07977 0.667284 6.83507C0.203437 7.59038 -0.0419922 8.45836 -0.0419922 9.34348C-0.0419922 10.2286 0.203437 11.0966 0.667284 11.8519C1.13113 12.6071 1.79541 13.2205 2.58702 13.6243C3.37862 14.0281 4.26686 14.2069 5.15398 14.1408C6.04108 14.0748 6.89268 13.7665 7.61504 13.2498V14.1591H10.3275V1.10742ZM4.82039 12.0279C4.28488 12.0279 3.76139 11.8699 3.31612 11.5739C2.87085 11.2778 2.52381 10.8571 2.31888 10.3648C2.11395 9.87252 2.06033 9.33084 2.1648 8.80827C2.26928 8.28569 2.52715 7.80563 2.90582 7.4289C3.28448 7.05211 3.76694 6.79556 4.29216 6.69159C4.81739 6.58763 5.3618 6.641 5.85658 6.84488C6.35129 7.04877 6.77417 7.39411 7.07168 7.83713C7.36919 8.28015 7.52801 8.801 7.52801 9.33384C7.52801 9.68761 7.45796 10.038 7.32193 10.3648C7.18585 10.6917 6.98638 10.9886 6.73497 11.2388C6.48355 11.489 6.18506 11.6874 5.85658 11.8228C5.52805 11.9582 5.17596 12.0279 4.82039 12.0279Z" fill="#A7AABB"/>
<path d="M48.8919 1.10742H46.1746V5.43712C45.4523 4.9205 44.6007 4.6122 43.7135 4.54612C42.8264 4.48004 41.9382 4.65877 41.1466 5.06261C40.3549 5.46646 39.6907 6.07977 39.2268 6.83507C38.763 7.59038 38.5176 8.45836 38.5176 9.34348C38.5176 10.2286 38.763 11.0966 39.2268 11.8519C39.6907 12.6071 40.3549 13.2205 41.1466 13.6243C41.9382 14.0282 42.8264 14.2069 43.7135 14.1408C44.6007 14.0748 45.4523 13.7665 46.1746 13.2498V22.2171C46.1746 23.6026 46.5372 24.6225 47.2528 25.3489C47.87 25.8739 48.6202 26.2203 49.4217 26.35C50.2232 26.4798 51.0451 26.3882 51.7978 26.085C52.2829 25.8731 52.7153 25.5578 53.0645 25.1613V26.2678H55.6368V16.9493H52.9243V21.558C52.9758 22.2363 52.7628 22.9082 52.3296 23.4343C52.1308 23.641 51.8899 23.8033 51.6232 23.9103C51.3564 24.0173 51.0698 24.0666 50.7824 24.0548C49.522 24.0548 48.8902 23.3043 48.8871 21.8034V13.9522V1.10742H48.8919ZM43.3944 12.0279C42.859 12.0279 42.3354 11.8699 41.8902 11.5739C41.4449 11.2778 41.0979 10.8571 40.8929 10.3648C40.688 9.87252 40.6344 9.33084 40.7389 8.80827C40.8433 8.28569 41.1012 7.80563 41.4799 7.4289C41.8586 7.05211 42.341 6.79556 42.8662 6.69159C43.3915 6.58763 43.9359 6.641 44.4306 6.84488C44.9254 7.04877 45.3482 7.39411 45.6457 7.83713C45.9433 8.28015 46.1021 8.801 46.1021 9.33384C46.1021 9.68761 46.032 10.038 45.8959 10.3648C45.7599 10.6917 45.5604 10.9886 45.309 11.2388C45.0576 11.489 44.7591 11.6874 44.4306 11.8228C44.1021 11.9582 43.75 12.0279 43.3944 12.0279Z" fill="#A7AABB"/>
<path d="M33.2892 16.8096C32.6368 16.7961 31.9885 16.9157 31.3842 17.1609C30.8568 17.3685 30.4004 17.7225 30.0691 18.1807V16.9492H27.4775V26.2676H30.19V21.8706C30.163 21.5182 30.2077 21.164 30.3216 20.8292C30.4354 20.4944 30.6159 20.1859 30.8524 19.9222C31.0977 19.6975 31.3858 19.5242 31.6998 19.4126C32.0139 19.3011 32.3471 19.2535 32.68 19.2727C32.7864 19.2727 32.9895 19.2727 33.2892 19.3064V16.8096Z" fill="#A7AABB"/>
<path d="M19.9057 5.1677C19.0793 4.75951 18.1691 4.54712 17.2465 4.54712C16.3238 4.54712 15.4136 4.75951 14.5872 5.1677C13.827 5.55586 13.1908 6.14731 12.7499 6.87551C12.3031 7.62453 12.0738 8.48218 12.0875 9.35304C12.0739 10.2225 12.3032 11.0785 12.7499 11.8258C13.1893 12.5552 13.826 13.1469 14.5872 13.5337C15.4136 13.9418 16.3238 14.1542 17.2465 14.1542C18.1691 14.1542 19.0793 13.9418 19.9057 13.5337C20.6633 13.1453 21.2963 12.5537 21.7334 11.8258C21.8755 11.5844 21.9936 11.3298 22.0863 11.0657H19.2579C18.9408 11.4165 18.5366 11.6782 18.0858 11.8245C17.635 11.9707 17.1534 11.9964 16.6895 11.8989C16.2256 11.8014 15.7956 11.5842 15.4427 11.2691C15.0898 10.9539 14.8264 10.5519 14.6791 10.1036H22.3378C22.3745 9.85179 22.3938 9.59783 22.3958 9.34347C22.4095 8.47254 22.1802 7.61489 21.7334 6.86593C21.2935 6.1427 20.6609 5.5549 19.9057 5.1677ZM14.6501 8.53526C14.813 7.97408 15.1548 7.48081 15.6239 7.12981C16.0931 6.77876 16.6643 6.58889 17.2513 6.58889C17.8383 6.58889 18.4095 6.77876 18.8787 7.12981C19.3479 7.48081 19.6896 7.97408 19.8525 8.53526H14.6501Z" fill="#A7AABB"/>
<path d="M58.4891 5.16784C57.6723 4.74819 56.7635 4.53662 55.8443 4.55206C54.9222 4.53781 54.0107 4.74927 53.1899 5.16784C52.4308 5.55746 51.7949 6.14856 51.3526 6.87566C50.9075 7.6252 50.6799 8.48279 50.6951 9.3532C50.6798 10.2222 50.9074 11.0783 51.3526 11.8259C51.7935 12.5542 52.4297 13.1456 53.1899 13.5338C54.0107 13.9523 54.9222 14.1638 55.8443 14.1496C56.7635 14.165 57.6723 13.9534 58.4891 13.5338C59.2464 13.1454 59.8796 12.5538 60.3168 11.8259C60.4577 11.5907 60.5759 11.3426 60.6699 11.0851H57.8461C57.5285 11.4358 57.1239 11.6972 56.6728 11.8433C56.2217 11.9894 55.7399 12.0151 55.2757 11.9176C54.8115 11.8202 54.3812 11.6031 54.0279 11.2881C53.6745 10.9731 53.4106 10.5714 53.2624 10.1229H60.9209C60.9604 9.87145 60.9795 9.61731 60.9789 9.36283C60.9969 8.48839 60.7673 7.62658 60.3168 6.87566C59.8784 6.14891 59.2458 5.55766 58.4891 5.16784ZM53.2383 8.53541C53.3996 7.97343 53.7405 7.47906 54.2094 7.12714C54.6783 6.77521 55.2497 6.58483 55.8371 6.58483C56.4245 6.58483 56.9959 6.77521 57.4648 7.12714C57.9337 7.47906 58.2746 7.97343 58.4358 8.53541H53.2383Z" fill="#A7AABB"/>
<path d="M60.8974 16.9397H58.1797V30.0009H60.8974V25.6713C61.6193 26.1879 62.471 26.4962 63.3582 26.5623C64.2453 26.6283 65.1336 26.4496 65.9251 26.0457C66.7166 25.6419 67.3811 25.0286 67.8449 24.2733C68.3088 23.518 68.5541 22.65 68.5541 21.7649C68.5541 20.8798 68.3088 20.0118 67.8449 19.2565C67.3811 18.5012 66.7166 17.8879 65.9251 17.484C65.1336 17.0802 64.2453 16.9014 63.3582 16.9676C62.471 17.0336 61.6193 17.3419 60.8974 17.8586V16.9445V16.9397ZM63.7014 24.4541C63.1657 24.4541 62.6427 24.2961 62.1974 24.0001C61.752 23.7041 61.4047 23.2833 61.2 22.7911C60.9948 22.2988 60.9414 21.7571 61.0458 21.2345C61.1502 20.7119 61.4082 20.2319 61.7868 19.8551C62.1655 19.4783 62.6479 19.2218 63.1732 19.1178C63.6985 19.0139 64.243 19.0672 64.7376 19.2711C65.2322 19.475 65.6555 19.8203 65.9529 20.2634C66.2504 20.7064 66.4093 21.2273 66.4093 21.7601C66.4093 22.4746 66.124 23.1598 65.616 23.6651C65.1081 24.1703 64.4199 24.4541 63.7014 24.4541Z" fill="#A7AABB"/>
<path d="M25.0208 16.9399H22.3035V17.854C21.5812 17.3374 20.7296 17.0291 19.8424 16.963C18.9553 16.8969 18.0671 17.0756 17.2755 17.4795C16.4839 17.8833 15.8196 18.4967 15.3557 19.252C14.8919 20.0072 14.6465 20.8752 14.6465 21.7604C14.6465 22.6455 14.8919 23.5135 15.3557 24.2687C15.8196 25.024 16.4839 25.6373 17.2755 26.0412C18.0671 26.445 18.9553 26.6238 19.8424 26.5577C20.7296 26.4916 21.5812 26.1833 22.3035 25.6667V29.9964H25.0208V16.9399ZM19.5088 24.4544C18.9734 24.4544 18.4498 24.2963 18.0046 24.0003C17.5593 23.7043 17.2123 23.2836 17.0073 22.7913C16.8024 22.299 16.7488 21.7574 16.8533 21.2347C16.9578 20.7122 17.2156 20.2322 17.5943 19.8554C17.973 19.4786 18.4554 19.222 18.9806 19.1181C19.5059 19.0141 20.0503 19.0675 20.545 19.2713C21.0398 19.4753 21.4626 19.8206 21.7602 20.2636C22.0577 20.7066 22.2165 21.2275 22.2165 21.7604C22.2165 22.4748 21.9312 23.1601 21.4234 23.6653C20.9157 24.1705 20.227 24.4544 19.5088 24.4544Z" fill="#A7AABB"/>
</g>
<defs>
<clipPath id="clip0_607_6089">
<rect width="69" height="30" fill="white" transform="translate(0 0.000976562)"/>
</clipPath>
</defs>
</svg>
