<svg width="60" height="60" viewBox="0 0 60 60" fill="none" xmlns="http://www.w3.org/2000/svg">
<g clip-path="url(#clip0_226_18972)">
<path d="M51.5134 46.6101C50.4966 46.6108 49.5025 46.31 48.6567 45.7456C47.811 45.1813 47.1516 44.3788 46.762 43.4397C46.3724 42.5005 46.27 41.4669 46.4679 40.4696C46.6658 39.4723 47.1551 38.5561 47.8738 37.8369C48.5925 37.1177 49.5083 36.6278 50.5055 36.4291C51.5027 36.2305 52.5363 36.3321 53.4758 36.721C54.4152 37.1099 55.2182 37.7687 55.7831 38.6141C56.3481 39.4594 56.6496 40.4533 56.6496 41.4701C56.649 42.8324 56.1078 44.1389 55.1448 45.1025C54.1818 46.0662 52.8757 46.6084 51.5134 46.6101ZM51.5134 38.2051C50.8675 38.2043 50.2358 38.3952 49.6984 38.7535C49.161 39.1118 48.7419 39.6215 48.4942 40.218C48.2466 40.8145 48.1814 41.4711 48.3069 42.1047C48.4325 42.7383 48.7431 43.3204 49.1996 43.7774C49.6561 44.2344 50.2378 44.5458 50.8713 44.6721C51.5047 44.7983 52.1614 44.7339 52.7582 44.4869C53.3551 44.2399 53.8652 43.8214 54.2241 43.2844C54.5831 42.7474 54.7746 42.116 54.7746 41.4701C54.7743 40.6049 54.4307 39.7752 53.8193 39.1631C53.2079 38.5509 52.3786 38.2064 51.5134 38.2051Z" fill="#0F111D"/>
<path d="M24.4277 46.6101C23.4109 46.611 22.4167 46.3104 21.5707 45.7462C20.7248 45.1821 20.0652 44.3797 19.6754 43.4405C19.2856 42.5014 19.1831 41.4678 19.3809 40.4704C19.5786 39.473 20.0678 38.5567 20.7864 37.8373C21.5051 37.118 22.4209 36.6279 23.4181 36.4292C24.4153 36.2305 25.449 36.332 26.3886 36.7209C27.3281 37.1097 28.1311 37.7685 28.6961 38.6139C29.2611 39.4593 29.5627 40.4533 29.5627 41.4701C29.5617 42.8321 29.0206 44.1382 28.0579 45.1017C27.0953 46.0653 25.7898 46.6077 24.4277 46.6101ZM24.4277 38.2051C23.7817 38.2041 23.15 38.3947 22.6124 38.7529C22.0748 39.1111 21.6556 39.6206 21.4077 40.2171C21.1598 40.8137 21.0944 41.4703 21.2198 42.104C21.3453 42.7376 21.6558 43.3199 22.1122 43.777C22.5687 44.2341 23.1504 44.5456 23.7839 44.672C24.4174 44.7983 25.0741 44.734 25.671 44.487C26.2679 44.24 26.7781 43.8216 27.1371 43.2845C27.4961 42.7475 27.6877 42.116 27.6877 41.4701C27.6871 40.6052 27.3435 39.7759 26.7325 39.1639C26.1214 38.5518 25.2926 38.2071 24.4277 38.2051Z" fill="#0F111D"/>
<path d="M58.2761 42.4074H55.7123C55.4637 42.4074 55.2252 42.3086 55.0494 42.1328C54.8736 41.957 54.7748 41.7185 54.7748 41.4699C54.7748 41.2212 54.8736 40.9828 55.0494 40.807C55.2252 40.6312 55.4637 40.5324 55.7123 40.5324H58.0111V35.5611C58.0105 34.889 57.8384 34.2282 57.5111 33.6411L52.4361 24.5424C52.3927 24.4647 52.3294 24.4 52.2527 24.355C52.1761 24.31 52.0887 24.2862 51.9998 24.2861H45.0835V40.5361H47.316C47.5647 40.5361 47.8031 40.6349 47.9789 40.8107C48.1548 40.9865 48.2535 41.225 48.2535 41.4736C48.2535 41.7223 48.1548 41.9607 47.9789 42.1366C47.8031 42.3124 47.5647 42.4111 47.316 42.4111H44.146C43.8974 42.4111 43.6589 42.3124 43.4831 42.1366C43.3073 41.9607 43.2085 41.7223 43.2085 41.4736V23.3486C43.2085 23.1 43.3073 22.8615 43.4831 22.6857C43.6589 22.5099 43.8974 22.4111 44.146 22.4111H51.9998C52.4228 22.4109 52.8381 22.5237 53.2029 22.7377C53.5677 22.9517 53.8687 23.2593 54.0748 23.6286L59.1486 32.7286C59.631 33.5948 59.8844 34.5697 59.8849 35.5611V40.7986C59.8842 41.2251 59.7145 41.6339 59.4129 41.9355C59.1114 42.237 58.7026 42.4067 58.2761 42.4074Z" fill="#0F111D"/>
<path d="M20.2285 42.4073H11.2397C10.9911 42.4073 10.7526 42.3085 10.5768 42.1327C10.401 41.9569 10.3022 41.7184 10.3022 41.4698V34.2598C10.3022 34.0111 10.401 33.7727 10.5768 33.5969C10.7526 33.421 10.9911 33.3223 11.2397 33.3223C11.4884 33.3223 11.7268 33.421 11.9027 33.5969C12.0785 33.7727 12.1772 34.0111 12.1772 34.2598V40.5323H20.2285C20.4771 40.5323 20.7156 40.631 20.8914 40.8069C21.0672 40.9827 21.166 41.2211 21.166 41.4698C21.166 41.7184 21.0672 41.9569 20.8914 42.1327C20.7156 42.3085 20.4771 42.4073 20.2285 42.4073Z" fill="#0F111D"/>
<path d="M11.2397 30.9337C10.9911 30.9337 10.7526 30.8349 10.5768 30.6591C10.401 30.4833 10.3022 30.2448 10.3022 29.9962V23.7012C10.3022 23.4525 10.401 23.2141 10.5768 23.0383C10.7526 22.8624 10.9911 22.7637 11.2397 22.7637C11.4884 22.7637 11.7268 22.8624 11.9027 23.0383C12.0785 23.2141 12.1772 23.4525 12.1772 23.7012V29.9999C12.1763 30.2479 12.077 30.4854 11.9013 30.6604C11.7256 30.8354 11.4877 30.9337 11.2397 30.9337Z" fill="#0F111D"/>
<path d="M44.1459 42.4071H28.6247C28.3761 42.4071 28.1376 42.3083 27.9618 42.1325C27.786 41.9567 27.6872 41.7183 27.6872 41.4696C27.6872 41.221 27.786 40.9825 27.9618 40.8067C28.1376 40.6309 28.3761 40.5321 28.6247 40.5321H43.2084V16.0059H12.1772V19.8671C12.1772 20.1158 12.0785 20.3542 11.9027 20.53C11.7268 20.7058 11.4884 20.8046 11.2397 20.8046C10.9911 20.8046 10.7526 20.7058 10.5768 20.53C10.401 20.3542 10.3022 20.1158 10.3022 19.8671V15.8334C10.3029 15.3818 10.4827 14.949 10.8021 14.6298C11.1215 14.3106 11.5544 14.1312 12.006 14.1309H43.3809C43.8323 14.1315 44.2649 14.3111 44.5841 14.6302C44.9032 14.9494 45.0828 15.382 45.0834 15.8334V41.4696C45.0834 41.7183 44.9847 41.9567 44.8089 42.1325C44.633 42.3083 44.3946 42.4071 44.1459 42.4071Z" fill="#0F111D"/>
<path d="M14.9461 35.1973H3.04736C2.79872 35.1973 2.56027 35.0985 2.38445 34.9227C2.20864 34.7469 2.10986 34.5084 2.10986 34.2598C2.10986 34.0111 2.20864 33.7727 2.38445 33.5969C2.56027 33.421 2.79872 33.3223 3.04736 33.3223H14.9461C15.1947 33.3223 15.4332 33.421 15.609 33.5969C15.7848 33.7727 15.8836 34.0111 15.8836 34.2598C15.8836 34.5084 15.7848 34.7469 15.609 34.9227C15.4332 35.0985 15.1947 35.1973 14.9461 35.1973Z" fill="#0F111D"/>
<path d="M24.4275 30.9336H7.82373C7.57509 30.9336 7.33663 30.8348 7.16082 30.659C6.985 30.4832 6.88623 30.2447 6.88623 29.9961C6.88623 29.7475 6.985 29.509 7.16082 29.3332C7.33663 29.1574 7.57509 29.0586 7.82373 29.0586H24.4275C24.6761 29.0586 24.9146 29.1574 25.0904 29.3332C25.2662 29.509 25.365 29.7475 25.365 29.9961C25.365 30.2447 25.2662 30.4832 25.0904 30.659C24.9146 30.8348 24.6761 30.9336 24.4275 30.9336Z" fill="#0F111D"/>
<path d="M7.30749 25.9834H0.823732C0.575091 25.9834 0.336634 25.8846 0.160818 25.7088C-0.0149973 25.533 -0.11377 25.2945 -0.11377 25.0459C-0.11377 24.7973 -0.0149973 24.5588 0.160818 24.383C0.336634 24.2072 0.575091 24.1084 0.823732 24.1084H7.30749C7.55614 24.1084 7.79459 24.2072 7.97041 24.383C8.14622 24.5588 8.245 24.7973 8.245 25.0459C8.245 25.2945 8.14622 25.533 7.97041 25.7088C7.79459 25.8846 7.55614 25.9834 7.30749 25.9834Z" fill="#0F111D"/>
<path d="M17.7038 20.8047H6.25879C6.01015 20.8047 5.77169 20.7059 5.59588 20.5301C5.42006 20.3543 5.32129 20.1158 5.32129 19.8672C5.32129 19.6185 5.42006 19.3801 5.59588 19.2043C5.77169 19.0285 6.01015 18.9297 6.25879 18.9297H17.7038C17.9524 18.9297 18.1909 19.0285 18.3667 19.2043C18.5425 19.3801 18.6413 19.6185 18.6413 19.8672C18.6413 20.1158 18.5425 20.3543 18.3667 20.5301C18.1909 20.7059 17.9524 20.8047 17.7038 20.8047Z" fill="#0F111D"/>
</g>
<defs>
<clipPath id="clip0_226_18972">
<rect width="60" height="60" fill="white"/>
</clipPath>
</defs>
</svg>
