<svg width="21" height="21" viewBox="0 0 21 21" fill="none" xmlns="http://www.w3.org/2000/svg">
<mask id="path-1-inside-1_150_4424" fill="white">
<path d="M6.60469 3.45064C6.62614 3.32317 6.6373 3.19225 6.6373 3.05876C6.6373 2.92243 6.62566 2.78878 6.60331 2.65874H19.7045C19.9254 2.65874 20.1045 2.83601 20.1045 3.05469C20.1045 3.27337 19.9254 3.45064 19.7045 3.45064H6.60469Z"/>
<path d="M1.86992 3.45064H0.504492C0.283578 3.45064 0.104492 3.27337 0.104492 3.05469C0.104492 2.83601 0.283578 2.65874 0.504492 2.65874H1.8713C1.84895 2.78878 1.8373 2.92243 1.8373 3.05876C1.8373 3.19225 1.84847 3.32317 1.86992 3.45064Z"/>
<path d="M6.6373 3.05466C6.6373 4.36672 5.56279 5.43036 4.2373 5.43036C2.91182 5.43036 1.8373 4.36672 1.8373 3.05466C1.8373 1.74259 2.91182 0.678955 4.2373 0.678955C5.56279 0.678955 6.6373 1.74259 6.6373 3.05466Z"/>
<path d="M17.4828 11.0707C17.5043 10.9432 17.5154 10.8123 17.5154 10.6788C17.5154 10.5424 17.5038 10.4088 17.4814 10.2787H19.7045C19.9254 10.2787 20.1045 10.456 20.1045 10.6747C20.1045 10.8934 19.9254 11.0707 19.7045 11.0707H17.4828Z"/>
<path d="M12.748 11.0707H0.504492C0.283578 11.0707 0.104492 10.8934 0.104492 10.6747C0.104492 10.456 0.283578 10.2787 0.504492 10.2787H12.7494C12.7271 10.4088 12.7154 10.5424 12.7154 10.6788C12.7154 10.8123 12.7266 10.9432 12.748 11.0707Z"/>
<path d="M10.4304 18.6919C10.4514 18.5656 10.4623 18.4359 10.4623 18.3037C10.4623 18.1661 10.4505 18.0312 10.4278 17.9H19.7045C19.9254 17.9 20.1045 18.0773 20.1045 18.296C20.1045 18.5147 19.9254 18.6919 19.7045 18.6919H10.4304Z"/>
<path d="M5.6942 18.6919H0.504492C0.283578 18.6919 0.104492 18.5147 0.104492 18.296C0.104492 18.0773 0.283578 17.9 0.504492 17.9H5.69682C5.67413 18.0312 5.6623 18.1661 5.6623 18.3037C5.6623 18.4359 5.67322 18.5656 5.6942 18.6919Z"/>
<path d="M17.5154 10.6747C17.5154 11.9867 16.4409 13.0504 15.1154 13.0504C13.7899 13.0504 12.7154 11.9867 12.7154 10.6747C12.7154 9.36261 13.7899 8.29898 15.1154 8.29898C16.4409 8.29898 17.5154 9.36261 17.5154 10.6747Z"/>
<path d="M10.4623 18.3037C10.4623 19.6158 9.38779 20.679 8.0623 20.679C6.73682 20.679 5.6623 19.6158 5.6623 18.3037C5.6623 16.9917 6.73682 15.9275 8.0623 15.9275C9.38779 15.9275 10.4623 16.9917 10.4623 18.3037Z"/>
</mask>
<path d="M6.60469 3.45064L5.61856 3.28472L5.42238 4.45064H6.60469V3.45064ZM6.60331 2.65874V1.65874H5.41675L5.61777 2.82815L6.60331 2.65874ZM1.86992 3.45064V4.45064H3.05223L2.85605 3.28471L1.86992 3.45064ZM1.8713 2.65874L2.85684 2.82815L3.05786 1.65874H1.8713V2.65874ZM17.4828 11.0707L16.4967 10.9047L16.3005 12.0707H17.4828V11.0707ZM17.4814 10.2787V9.27875H16.2949L16.4959 10.4482L17.4814 10.2787ZM12.748 11.0707V12.0707H13.9304L13.7342 10.9047L12.748 11.0707ZM12.7494 10.2787L13.735 10.4482L13.936 9.27875H12.7494V10.2787ZM10.4304 18.6919L9.44392 18.5281L9.25061 19.6919H10.4304V18.6919ZM10.4278 17.9V16.9H9.23994L9.44242 18.0705L10.4278 17.9ZM5.6942 18.6919V19.6919H6.874L6.68068 18.5281L5.6942 18.6919ZM5.69682 17.9L6.68219 18.0705L6.88466 16.9H5.69682V17.9ZM5.6373 3.05876C5.6373 3.13641 5.63082 3.21183 5.61856 3.28472L7.59083 3.61657C7.62147 3.4345 7.6373 3.24809 7.6373 3.05876H5.6373ZM5.61777 2.82815C5.63054 2.90248 5.6373 2.97946 5.6373 3.05876H7.6373C7.6373 2.8654 7.62079 2.67508 7.58886 2.48933L5.61777 2.82815ZM6.60331 3.65874H19.7045V1.65874H6.60331V3.65874ZM19.7045 3.65874C19.3827 3.65874 19.1045 3.39787 19.1045 3.05469H21.1045C21.1045 2.27416 20.4681 1.65874 19.7045 1.65874V3.65874ZM19.1045 3.05469C19.1045 2.71152 19.3827 2.45064 19.7045 2.45064V4.45064C20.4681 4.45064 21.1045 3.83522 21.1045 3.05469H19.1045ZM19.7045 2.45064H6.60469V4.45064H19.7045V2.45064ZM1.86992 2.45064H0.504492V4.45064H1.86992V2.45064ZM0.504492 2.45064C0.826246 2.45064 1.10449 2.71152 1.10449 3.05469H-0.895508C-0.895508 3.83522 -0.259089 4.45064 0.504492 4.45064V2.45064ZM1.10449 3.05469C1.10449 3.39787 0.826246 3.65874 0.504492 3.65874V1.65874C-0.259089 1.65874 -0.895508 2.27416 -0.895508 3.05469H1.10449ZM0.504492 3.65874H1.8713V1.65874H0.504492V3.65874ZM2.8373 3.05876C2.8373 2.97946 2.84407 2.90249 2.85684 2.82815L0.885753 2.48933C0.853824 2.67508 0.837305 2.8654 0.837305 3.05876H2.8373ZM2.85605 3.28471C2.84379 3.21183 2.8373 3.13641 2.8373 3.05876H0.837305C0.837305 3.24809 0.853142 3.4345 0.883777 3.61657L2.85605 3.28471ZM5.6373 3.05466C5.6373 3.80487 5.02012 4.43036 4.2373 4.43036V6.43036C6.10546 6.43036 7.6373 4.92858 7.6373 3.05466H5.6373ZM4.2373 4.43036C3.45449 4.43036 2.8373 3.80487 2.8373 3.05466H0.837305C0.837305 4.92858 2.36915 6.43036 4.2373 6.43036V4.43036ZM2.8373 3.05466C2.8373 2.30445 3.45449 1.67896 4.2373 1.67896V-0.321045C2.36915 -0.321045 0.837305 1.18074 0.837305 3.05466H2.8373ZM4.2373 1.67896C5.02012 1.67896 5.6373 2.30445 5.6373 3.05466H7.6373C7.6373 1.18074 6.10546 -0.321045 4.2373 -0.321045V1.67896ZM16.5154 10.6788C16.5154 10.7564 16.5089 10.8318 16.4967 10.9047L18.469 11.2366C18.4996 11.0545 18.5154 10.8681 18.5154 10.6788H16.5154ZM16.4959 10.4482C16.5087 10.5225 16.5154 10.5995 16.5154 10.6788H18.5154C18.5154 10.4854 18.4989 10.2951 18.467 10.1093L16.4959 10.4482ZM17.4814 11.2787H19.7045V9.27875H17.4814V11.2787ZM19.7045 11.2787C19.3827 11.2787 19.1045 11.0179 19.1045 10.6747H21.1045C21.1045 9.89417 20.4681 9.27875 19.7045 9.27875V11.2787ZM19.1045 10.6747C19.1045 10.3315 19.3827 10.0707 19.7045 10.0707V12.0707C20.4681 12.0707 21.1045 11.4552 21.1045 10.6747H19.1045ZM19.7045 10.0707H17.4828V12.0707H19.7045V10.0707ZM12.748 10.0707H0.504492V12.0707H12.748V10.0707ZM0.504492 10.0707C0.826248 10.0707 1.10449 10.3315 1.10449 10.6747H-0.895508C-0.895508 11.4552 -0.259091 12.0707 0.504492 12.0707V10.0707ZM1.10449 10.6747C1.10449 11.0179 0.826245 11.2787 0.504492 11.2787V9.27875C-0.259088 9.27875 -0.895508 9.89417 -0.895508 10.6747H1.10449ZM0.504492 11.2787H12.7494V9.27875H0.504492V11.2787ZM13.7154 10.6788C13.7154 10.5995 13.7222 10.5225 13.735 10.4482L11.7639 10.1093C11.7319 10.2951 11.7154 10.4854 11.7154 10.6788H13.7154ZM13.7342 10.9047C13.7219 10.8318 13.7154 10.7564 13.7154 10.6788H11.7154C11.7154 10.8681 11.7313 11.0545 11.7619 11.2366L13.7342 10.9047ZM9.46231 18.3037C9.46231 18.3808 9.45595 18.4557 9.44392 18.5281L11.4169 18.8558C11.4468 18.6755 11.4623 18.4911 11.4623 18.3037H9.46231ZM9.44242 18.0705C9.45542 18.1457 9.46231 18.2235 9.46231 18.3037H11.4623C11.4623 18.1087 11.4455 17.9168 11.4131 17.7296L9.44242 18.0705ZM10.4278 18.9H19.7045V16.9H10.4278V18.9ZM19.7045 18.9C19.3827 18.9 19.1045 18.6392 19.1045 18.296H21.1045C21.1045 17.5155 20.4681 16.9 19.7045 16.9V18.9ZM19.1045 18.296C19.1045 17.9528 19.3827 17.6919 19.7045 17.6919V19.6919C20.4681 19.6919 21.1045 19.0765 21.1045 18.296H19.1045ZM19.7045 17.6919H10.4304V19.6919H19.7045V17.6919ZM5.6942 17.6919H0.504492V19.6919H5.6942V17.6919ZM0.504492 17.6919C0.826245 17.6919 1.10449 17.9528 1.10449 18.296H-0.895508C-0.895508 19.0765 -0.259088 19.6919 0.504492 19.6919V17.6919ZM1.10449 18.296C1.10449 18.6392 0.826245 18.9 0.504492 18.9V16.9C-0.259088 16.9 -0.895508 17.5155 -0.895508 18.296H1.10449ZM0.504492 18.9H5.69682V16.9H0.504492V18.9ZM6.6623 18.3037C6.6623 18.2235 6.66919 18.1457 6.68219 18.0705L4.71146 17.7296C4.67907 17.9168 4.6623 18.1087 4.6623 18.3037H6.6623ZM6.68068 18.5281C6.66866 18.4557 6.6623 18.3808 6.6623 18.3037H4.6623C4.6623 18.4911 4.67778 18.6755 4.70772 18.8558L6.68068 18.5281ZM16.5154 10.6747C16.5154 11.4249 15.8982 12.0504 15.1154 12.0504V14.0504C16.9836 14.0504 18.5154 12.5486 18.5154 10.6747H16.5154ZM15.1154 12.0504C14.3326 12.0504 13.7154 11.4249 13.7154 10.6747H11.7154C11.7154 12.5486 13.2473 14.0504 15.1154 14.0504V12.0504ZM13.7154 10.6747C13.7154 9.92447 14.3326 9.29897 15.1154 9.29897V7.29898C13.2473 7.29898 11.7154 8.80076 11.7154 10.6747H13.7154ZM15.1154 9.29897C15.8982 9.29897 16.5154 9.92447 16.5154 10.6747H18.5154C18.5154 8.80076 16.9836 7.29898 15.1154 7.29898V9.29897ZM9.46231 18.3037C9.46231 19.0537 8.84538 19.679 8.0623 19.679V21.679C9.93019 21.679 11.4623 20.1779 11.4623 18.3037H9.46231ZM8.0623 19.679C7.27923 19.679 6.6623 19.0537 6.6623 18.3037H4.6623C4.6623 20.1779 6.19442 21.679 8.0623 21.679V19.679ZM6.6623 18.3037C6.6623 17.5533 7.27975 16.9275 8.0623 16.9275V14.9275C6.19389 14.9275 4.6623 16.4301 4.6623 18.3037H6.6623ZM8.0623 16.9275C8.84486 16.9275 9.46231 17.5533 9.46231 18.3037H11.4623C11.4623 16.4301 9.93072 14.9275 8.0623 14.9275V16.9275Z" fill="#0F111D" mask="url(#path-1-inside-1_150_4424)"/>
</svg>
