<svg width="20" height="15" viewBox="0 0 20 15" fill="none" xmlns="http://www.w3.org/2000/svg">
<g clip-path="url(#clip0_491_21068)">
<path fill-rule="evenodd" clip-rule="evenodd" d="M2 6.92249V10.9225C2 11.1877 2.10536 11.4421 2.29289 11.6296C2.48043 11.8171 2.73478 11.9225 3 11.9225H17C17.2652 11.9225 17.5196 11.8171 17.7071 11.6296C17.8946 11.4421 18 11.1877 18 10.9225V6.92249H20V10.9225C20 11.7181 19.6839 12.4812 19.1213 13.0438C18.5587 13.6064 17.7956 13.9225 17 13.9225H3C2.20435 13.9225 1.44129 13.6064 0.87868 13.0438C0.31607 12.4812 0 11.7181 0 10.9225L0 6.92249H2V6.92249Z" fill="#0F111D"/>
<path fill-rule="evenodd" clip-rule="evenodd" d="M4.30688 1.84349L5.69288 0.402489L9.99988 4.53649L14.3069 0.401489L15.6929 1.84349L9.99988 7.30849L4.30688 1.84349Z" fill="#0F111D"/>
</g>
<defs>
<clipPath id="clip0_491_21068">
<rect width="20" height="14" fill="white" transform="translate(0 0.122498)"/>
</clipPath>
</defs>
</svg>
