<svg width="37" height="20" viewBox="0 0 37 20" fill="none" xmlns="http://www.w3.org/2000/svg">
<path d="M31.84 20C31.213 20.0005 30.5999 19.8153 30.0784 19.4678C29.5568 19.1203 29.1502 18.6261 28.9099 18.0478C28.6697 17.4695 28.6066 16.8331 28.7286 16.219C28.8506 15.6049 29.1523 15.0407 29.5955 14.5979C30.0387 14.155 30.6035 13.8533 31.2184 13.731C31.8333 13.6087 32.4708 13.6713 33.0501 13.9107C33.6294 14.1502 34.1246 14.5559 34.473 15.0764C34.8214 15.597 35.0073 16.209 35.0073 16.835C35.0069 17.6739 34.6732 18.4784 34.0793 19.0718C33.4855 19.6652 32.6801 19.999 31.84 20ZM31.84 14.8246C31.4416 14.8241 31.0521 14.9417 30.7207 15.1623C30.3893 15.3829 30.1309 15.6968 29.9782 16.0641C29.8254 16.4314 29.7852 16.8357 29.8626 17.2258C29.9401 17.616 30.1316 17.9744 30.4131 18.2558C30.6946 18.5372 31.0534 18.7289 31.444 18.8067C31.8346 18.8845 32.2396 18.8448 32.6076 18.6927C32.9757 18.5406 33.2902 18.2829 33.5116 17.9522C33.7329 17.6216 33.8511 17.2328 33.8511 16.835C33.8509 16.3023 33.639 15.7914 33.2619 15.4145C32.8849 15.0376 32.3735 14.8254 31.84 14.8246Z" fill="#0F111D"/>
<path d="M15.1337 20C14.5067 20.0006 13.8935 19.8155 13.3719 19.4681C12.8502 19.1207 12.4435 18.6266 12.2031 18.0484C11.9627 17.4701 11.8995 16.8336 12.0215 16.2195C12.1434 15.6053 12.4451 15.0411 12.8882 14.5981C13.3314 14.1552 13.8962 13.8535 14.5111 13.7311C15.126 13.6087 15.7635 13.6712 16.3429 13.9107C16.9222 14.1501 17.4175 14.5558 17.7659 15.0763C18.1143 15.5969 18.3003 16.2089 18.3003 16.835C18.2997 17.6737 17.966 18.4779 17.3723 19.0713C16.7787 19.6646 15.9736 19.9986 15.1337 20ZM15.1337 14.8246C14.7353 14.824 14.3458 14.9414 14.0143 15.1619C13.6827 15.3825 13.4242 15.6962 13.2713 16.0635C13.1185 16.4308 13.0782 16.8352 13.1555 17.2254C13.2328 17.6156 13.4244 17.9741 13.7058 18.2556C13.9873 18.537 14.346 18.7288 14.7367 18.8066C15.1273 18.8845 15.5323 18.8448 15.9004 18.6927C16.2685 18.5407 16.5831 18.283 16.8045 17.9523C17.0259 17.6216 17.144 17.2328 17.144 16.835C17.1436 16.3025 16.9318 15.7918 16.555 15.415C16.1781 15.0381 15.667 14.8258 15.1337 14.8246Z" fill="#0F111D"/>
<path d="M36.0066 17.4119H34.4256C34.2722 17.4119 34.1252 17.351 34.0168 17.2428C33.9083 17.1345 33.8474 16.9877 33.8474 16.8346C33.8474 16.6815 33.9083 16.5347 34.0168 16.4264C34.1252 16.3181 34.2722 16.2573 34.4256 16.2573H35.8431V13.1962C35.8428 12.7824 35.7366 12.3754 35.5348 12.014L32.4052 6.41134C32.3785 6.36352 32.3394 6.32369 32.2921 6.29596C32.2448 6.26822 32.191 6.25358 32.1362 6.25355H27.8711V16.2596H29.2478C29.4012 16.2596 29.5482 16.3205 29.6566 16.4287C29.765 16.537 29.826 16.6838 29.826 16.8369C29.826 16.99 29.765 17.1368 29.6566 17.2451C29.5482 17.3534 29.4012 17.4142 29.2478 17.4142H27.293C27.1396 17.4142 26.9926 17.3534 26.8842 17.2451C26.7758 17.1368 26.7148 16.99 26.7148 16.8369V5.67627C26.7148 5.52317 26.7758 5.37634 26.8842 5.26808C26.9926 5.15982 27.1396 5.099 27.293 5.099H32.1362C32.397 5.09887 32.6531 5.16829 32.8781 5.30009C33.103 5.43189 33.2886 5.62128 33.4158 5.84869L36.5446 11.4521C36.8421 11.9854 36.9983 12.5858 36.9986 13.1962V16.4213C36.9982 16.6839 36.8936 16.9356 36.7076 17.1213C36.5216 17.307 36.2695 17.4115 36.0066 17.4119Z" fill="#0F111D"/>
<path d="M12.5431 17.412H7C6.84667 17.412 6.69962 17.3512 6.5912 17.243C6.48278 17.1347 6.42188 16.9879 6.42188 16.8348V12.3951C6.42188 12.242 6.48278 12.0952 6.5912 11.9869C6.69962 11.8787 6.84667 11.8179 7 11.8179C7.15333 11.8179 7.30038 11.8787 7.4088 11.9869C7.51722 12.0952 7.57813 12.242 7.57813 12.3951V16.2575H12.5431C12.6964 16.2575 12.8435 16.3183 12.9519 16.4266C13.0603 16.5348 13.1212 16.6817 13.1212 16.8348C13.1212 16.9879 13.0603 17.1347 12.9519 17.243C12.8435 17.3512 12.6964 17.412 12.5431 17.412Z" fill="#0F111D"/>
<path d="M7 10.3467C6.84667 10.3467 6.69962 10.2858 6.5912 10.1776C6.48278 10.0693 6.42188 9.92249 6.42188 9.76939V5.89319C6.42188 5.74009 6.48278 5.59326 6.5912 5.485C6.69962 5.37674 6.84667 5.31592 7 5.31592C7.15333 5.31592 7.30038 5.37674 7.4088 5.485C7.51722 5.59326 7.57813 5.74009 7.57813 5.89319V9.7717C7.57752 9.9244 7.51634 10.0706 7.40798 10.1784C7.29963 10.2862 7.15293 10.3467 7 10.3467Z" fill="#0F111D"/>
<path d="M27.2922 17.4115H17.7208C17.5674 17.4115 17.4204 17.3507 17.312 17.2424C17.2035 17.1341 17.1426 16.9873 17.1426 16.8342C17.1426 16.6811 17.2035 16.5343 17.312 16.426C17.4204 16.3177 17.5674 16.2569 17.7208 16.2569H26.7141V1.15467H7.57813V3.53227C7.57813 3.68537 7.51722 3.8322 7.4088 3.94046C7.30038 4.04872 7.15333 4.10954 7 4.10954C6.84667 4.10954 6.69962 4.04872 6.5912 3.94046C6.48278 3.8322 6.42188 3.68537 6.42188 3.53227V1.04845C6.42228 0.770409 6.53313 0.503882 6.7301 0.307349C6.92707 0.110815 7.19407 0.000325615 7.47252 0.00012207H26.8205C27.0988 0.000529264 27.3656 0.111109 27.5624 0.30762C27.7592 0.504132 27.8699 0.770542 27.8703 1.04845V16.8342C27.8703 16.9873 27.8094 17.1341 27.701 17.2424C27.5926 17.3507 27.4455 17.4115 27.2922 17.4115Z" fill="#0F111D"/>
<path d="M9.28489 12.9724H1.94733C1.794 12.9724 1.64695 12.9116 1.53854 12.8033C1.43012 12.6951 1.36921 12.5482 1.36921 12.3951C1.36921 12.242 1.43012 12.0952 1.53854 11.9869C1.64695 11.8787 1.794 11.8179 1.94733 11.8179H9.28489C9.43822 11.8179 9.58527 11.8787 9.69369 11.9869C9.80211 12.0952 9.86302 12.242 9.86302 12.3951C9.86302 12.5482 9.80211 12.6951 9.69369 12.8033C9.58527 12.9116 9.43822 12.9724 9.28489 12.9724Z" fill="#0F111D"/>
<path d="M15.1316 10.3463H4.89258C4.73925 10.3463 4.5922 10.2855 4.48378 10.1772C4.37536 10.069 4.31445 9.92215 4.31445 9.76905C4.31445 9.61594 4.37536 9.46911 4.48378 9.36085C4.5922 9.25259 4.73925 9.19177 4.89258 9.19177H15.1316C15.2849 9.19177 15.432 9.25259 15.5404 9.36085C15.6488 9.46911 15.7097 9.61594 15.7097 9.76905C15.7097 9.92215 15.6488 10.069 15.5404 10.1772C15.432 10.2855 15.2849 10.3463 15.1316 10.3463Z" fill="#0F111D"/>
<path d="M4.57646 7.29851H0.578127C0.424799 7.29851 0.27775 7.23769 0.16933 7.12943C0.0609097 7.02117 0 6.87434 0 6.72123C0 6.56813 0.0609097 6.4213 0.16933 6.31304C0.27775 6.20478 0.424799 6.14396 0.578127 6.14396H4.57646C4.72979 6.14396 4.87683 6.20478 4.98525 6.31304C5.09367 6.4213 5.15458 6.56813 5.15458 6.72123C5.15458 6.87434 5.09367 7.02117 4.98525 7.12943C4.87683 7.23769 4.72979 7.29851 4.57646 7.29851Z" fill="#0F111D"/>
<path d="M10.9855 4.1095H3.92779C3.77446 4.1095 3.62741 4.04868 3.51899 3.94042C3.41058 3.83216 3.34967 3.68533 3.34967 3.53223C3.34967 3.37913 3.41058 3.2323 3.51899 3.12404C3.62741 3.01578 3.77446 2.95496 3.92779 2.95496H10.9855C11.1389 2.95496 11.2859 3.01578 11.3943 3.12404C11.5028 3.2323 11.5637 3.37913 11.5637 3.53223C11.5637 3.68533 11.5028 3.83216 11.3943 3.94042C11.2859 4.04868 11.1389 4.1095 10.9855 4.1095Z" fill="#0F111D"/>
</svg>
