<svg width="30" height="31" viewBox="0 0 30 31" fill="none" xmlns="http://www.w3.org/2000/svg">
<g clip-path="url(#clip0_330_16334)">
<path d="M26.1328 3.09375H23.4375V1.6875C23.4375 1.16977 23.0178 0.75 22.5 0.75C21.9822 0.75 21.5625 1.16977 21.5625 1.6875V3.09375H8.4375V1.6875C8.4375 1.16977 8.01779 0.75 7.5 0.75C6.98221 0.75 6.5625 1.16977 6.5625 1.6875V3.09375H3.86719C1.73479 3.09375 0 4.82854 0 6.96094V26.8828C0 29.0152 1.73479 30.75 3.86719 30.75H26.1328C28.2652 30.75 30 29.0152 30 26.8828V6.96094C30 4.82854 28.2652 3.09375 26.1328 3.09375ZM3.86719 4.96875H6.5625V5.90625C6.5625 6.42398 6.98221 6.84375 7.5 6.84375C8.01779 6.84375 8.4375 6.42398 8.4375 5.90625V4.96875H21.5625V5.90625C21.5625 6.42398 21.9822 6.84375 22.5 6.84375C23.0178 6.84375 23.4375 6.42398 23.4375 5.90625V4.96875H26.1328C27.2313 4.96875 28.125 5.86242 28.125 6.96094V9.1875H1.875V6.96094C1.875 5.86242 2.76867 4.96875 3.86719 4.96875ZM26.1328 28.875H3.86719C2.76867 28.875 1.875 27.9813 1.875 26.8828V11.0625H28.125V26.8828C28.125 27.9813 27.2313 28.875 26.1328 28.875Z" fill="#A7AABB"/>
</g>
<defs>
<clipPath id="clip0_330_16334">
<rect width="30" height="30" fill="white" transform="translate(0 0.75)"/>
</clipPath>
</defs>
</svg>
