<svg width="20" height="20" viewBox="0 0 20 20" fill="none" xmlns="http://www.w3.org/2000/svg">
<path d="M18.8053 16.2211C18.4333 17.2716 16.9569 18.1427 15.7793 18.3971C14.9737 18.5687 13.9213 18.7055 10.3788 17.2369C5.84757 15.3596 2.92953 10.7551 2.7021 10.4564C2.4843 10.1576 0.871094 8.01825 0.871094 5.80563C0.871094 3.593 1.99475 2.5156 2.44768 2.05303C2.81967 1.67334 3.4345 1.49988 4.02427 1.49988C4.21508 1.49988 4.38662 1.50951 4.54081 1.51722C4.99374 1.5365 5.22117 1.56348 5.51991 2.27854C5.8919 3.17476 6.79776 5.38739 6.90569 5.61482C7.01555 5.84225 7.12541 6.15063 6.97122 6.44937C6.82667 6.75775 6.69946 6.89459 6.47203 7.15671C6.2446 7.41884 6.02874 7.61928 5.80131 7.90068C5.59315 8.14546 5.35801 8.40758 5.62014 8.86051C5.88226 9.30381 6.78812 10.7821 8.12186 11.9694C9.84301 13.5016 11.2384 13.9912 11.7376 14.1993C12.1096 14.3535 12.5529 14.3169 12.8247 14.0278C13.1696 13.6558 13.5956 13.0391 14.0293 12.4319C14.3376 11.9963 14.727 11.9424 15.1356 12.0966C15.5519 12.2411 17.7549 13.3301 18.2078 13.5556C18.6607 13.783 18.9595 13.891 19.0693 14.0818C19.1773 14.2726 19.1773 15.1688 18.8053 16.2211Z" fill="#F9F9F9" stroke="#0F111D"/>
</svg>
