<svg width="60" height="60" viewBox="0 0 60 60" fill="none" xmlns="http://www.w3.org/2000/svg">
<path d="M29.9878 49.9991C29.8562 49.9991 29.7229 49.9674 29.6029 49.9041L10.4512 39.905C10.1762 39.7617 10.0029 39.4767 10.0029 39.1667V20.4184C10.0029 20.1301 10.1529 19.8617 10.3979 19.7101C10.6429 19.5584 10.9512 19.5451 11.2078 19.6734L30.3595 29.2559C30.6411 29.3976 30.8194 29.6859 30.8194 30.0009V49.1658C30.8194 49.4575 30.6678 49.7275 30.4178 49.8791C30.2878 49.9591 30.1378 49.9991 29.9878 49.9991ZM11.6694 38.6618L29.1546 47.791V30.5158L11.6694 21.7666V38.6618Z" fill="#0F111D"/>
<path d="M30.0129 50.0003C29.863 50.0003 29.713 49.9603 29.5813 49.8803C29.333 49.7287 29.1797 49.4587 29.1797 49.1671V30.0021C29.1797 29.6871 29.358 29.3988 29.6396 29.2572L48.7913 19.6747C49.0463 19.5447 49.3562 19.558 49.6012 19.7113C49.8479 19.863 49.9979 20.1313 49.9979 20.4196V39.1679C49.9979 39.4779 49.8245 39.7629 49.5496 39.9062L30.3979 49.9053C30.2779 49.9687 30.1446 50.0003 30.0129 50.0003V50.0003ZM30.8462 30.517V47.7922L48.3313 38.663V21.7678L30.8462 30.517ZM49.1646 39.1679H49.1813H49.1646Z" fill="#0F111D"/>
<path d="M10.836 21.2482C10.5293 21.2482 10.236 21.0799 10.0894 20.7882C9.88272 20.3766 10.051 19.8766 10.4627 19.67L29.641 10.0875C29.876 9.97084 30.1526 9.97084 30.3859 10.0875L49.5376 19.67C49.9492 19.8766 50.1159 20.3766 49.9109 20.7882C49.7043 21.1999 49.206 21.3648 48.7927 21.1615L30.0143 11.764L11.2093 21.1599C11.0893 21.2199 10.9626 21.2482 10.836 21.2482V21.2482Z" fill="#0F111D"/>
<path d="M39.9985 35.004C39.5385 35.004 39.1652 34.6307 39.1652 34.1708V25.5198L20.4735 16.1673C20.0619 15.9624 19.8953 15.4607 20.1019 15.0491C20.3086 14.6375 20.8085 14.4725 21.2201 14.6758L40.3718 24.2583C40.6534 24.4016 40.8317 24.6899 40.8317 25.0049V34.1708C40.8317 34.6307 40.4584 35.004 39.9985 35.004V35.004Z" fill="#0F111D"/>
</svg>
