<svg width="24" height="19" viewBox="0 0 24 19" fill="none" xmlns="http://www.w3.org/2000/svg">
<path d="M22.7926 18.3397H7.01656C6.36635 18.3397 5.83936 17.8055 5.83936 17.1465C5.83936 16.4874 6.36635 15.9532 7.01656 15.9532H22.7923C23.4425 15.9532 23.9695 16.4874 23.9695 17.1465C23.9695 17.8055 23.4429 18.3397 22.7926 18.3397Z" fill="#A7AABB"/>
<path d="M22.7926 10.8499H7.01656C6.36635 10.8499 5.83936 10.3158 5.83936 9.65672C5.83936 8.99766 6.36635 8.4635 7.01656 8.4635H22.7923C23.4425 8.4635 23.9695 8.99766 23.9695 9.65672C23.9699 10.3158 23.4429 10.8499 22.7926 10.8499Z" fill="#A7AABB"/>
<path d="M22.777 3.76594H7.00093C6.35073 3.76594 5.82373 3.23178 5.82373 2.57273C5.82373 1.91368 6.35073 1.37952 7.00093 1.37952H22.7766C23.4268 1.37952 23.9538 1.91368 23.9538 2.57273C23.9538 3.23178 23.4272 3.76594 22.777 3.76594Z" fill="#A7AABB"/>
<path d="M1.9594 3.86158C2.83255 3.86158 3.54038 3.14413 3.54038 2.2591C3.54038 1.37407 2.83255 0.656616 1.9594 0.656616C1.08625 0.656616 0.378418 1.37407 0.378418 2.2591C0.378418 3.14413 1.08625 3.86158 1.9594 3.86158Z" fill="#A7AABB"/>
<path d="M1.9594 11.2588C2.83255 11.2588 3.54038 10.5413 3.54038 9.65631C3.54038 8.77129 2.83255 8.05383 1.9594 8.05383C1.08625 8.05383 0.378418 8.77129 0.378418 9.65631C0.378418 10.5413 1.08625 11.2588 1.9594 11.2588Z" fill="#A7AABB"/>
<path d="M1.9594 18.6568C2.83255 18.6568 3.54038 17.9393 3.54038 17.0543C3.54038 16.1692 2.83255 15.4518 1.9594 15.4518C1.08625 15.4518 0.378418 16.1692 0.378418 17.0543C0.378418 17.9393 1.08625 18.6568 1.9594 18.6568Z" fill="#A7AABB"/>
</svg>
