<svg width="19" height="19" viewBox="0 0 19 19" fill="none" xmlns="http://www.w3.org/2000/svg">
<path d="M3.03093 15.172L3.15591 14.8024L2.92506 14.4879C1.9287 13.1306 1.34326 11.4603 1.34326 9.65662C1.34326 5.11282 5.0699 1.40662 9.6636 1.40662H9.66813C14.2618 1.40662 17.9885 5.11388 17.9885 9.65662C17.9885 14.1994 14.2618 17.9066 9.66813 17.9066C7.97315 17.9066 6.40443 17.4071 5.08895 16.5426L4.79063 16.3465L4.45036 16.4545L2.37465 17.1127L3.03093 15.172Z" stroke="#A7AABB" stroke-width="1.5"/>
<path d="M13.8392 12.584C13.6628 13.0783 12.9624 13.4883 12.4038 13.608C12.0216 13.6888 11.5224 13.7531 9.84186 13.062C7.6923 12.1786 6.30803 10.0118 6.20014 9.87119C6.09682 9.73061 5.33154 8.72384 5.33154 7.68261C5.33154 6.64137 5.86459 6.13436 6.07945 5.91668C6.25592 5.738 6.54758 5.65637 6.82736 5.65637C6.91788 5.65637 6.99925 5.66091 7.0724 5.66454C7.28726 5.67361 7.39515 5.6863 7.53687 6.0228C7.71333 6.44455 8.14306 7.48579 8.19426 7.59281C8.24638 7.69984 8.2985 7.84496 8.22535 7.98554C8.15678 8.13066 8.09643 8.19506 7.98854 8.31841C7.88065 8.44176 7.77825 8.53609 7.67036 8.66851C7.57161 8.7837 7.46007 8.90705 7.58442 9.1202C7.70876 9.32881 8.13849 10.0245 8.7712 10.5832C9.58768 11.3043 10.2496 11.5346 10.4865 11.6326C10.6629 11.7051 10.8732 11.6879 11.0021 11.5519C11.1658 11.3768 11.3679 11.0866 11.5736 10.8009C11.7199 10.5959 11.9046 10.5705 12.0984 10.643C12.2959 10.7111 13.3409 11.2235 13.5558 11.3296C13.7707 11.4367 13.9124 11.4875 13.9645 11.5773C14.0157 11.6671 14.0157 12.0888 13.8392 12.584Z" fill="#A7AABB"/>
</svg>
