<svg width="14" height="16" viewBox="0 0 14 16" fill="none" xmlns="http://www.w3.org/2000/svg">
<g clip-path="url(#clip0_534_13072)">
<path fill-rule="evenodd" clip-rule="evenodd" d="M6.00069 5.17228L11.5713 4.02184C11.6598 4.00357 11.752 4.02104 11.8277 4.07043C11.9033 4.11981 11.9564 4.19712 11.9754 4.28549L13.1292 9.85614C13.1382 9.9002 13.1384 9.9456 13.1299 9.98976C13.1213 10.0339 13.1042 10.076 13.0794 10.1135C13.0546 10.151 13.0226 10.1832 12.9853 10.2084C12.9481 10.2336 12.9062 10.2512 12.8621 10.2602L7.29148 11.414C7.24742 11.423 7.20202 11.4232 7.15786 11.4147C7.11371 11.4061 7.07167 11.389 7.03415 11.3642C6.99663 11.3394 6.96437 11.3074 6.9392 11.2701C6.91403 11.2329 6.89645 11.191 6.88747 11.1469L5.73705 5.57629C5.71878 5.48779 5.73624 5.39564 5.78563 5.31996C5.83501 5.24428 5.91232 5.1912 6.00069 5.17228Z" fill="#A7AABB" stroke="#A7AABB" stroke-miterlimit="10"/>
<path fill-rule="evenodd" clip-rule="evenodd" d="M2.62963 1.24175C2.60438 1.11645 2.62985 0.986263 2.70045 0.879718C2.77106 0.773173 2.88103 0.698978 3.00626 0.673395C3.06855 0.660392 3.13279 0.659832 3.19529 0.671744C3.2578 0.683657 3.31734 0.707795 3.37048 0.742796C3.42361 0.777797 3.46931 0.822962 3.50493 0.875685C3.54055 0.928407 3.56541 0.987653 3.57805 1.05001L6.13226 13.4102C6.15751 13.5355 6.13204 13.6657 6.06144 13.7722C5.99083 13.8788 5.88086 13.953 5.75563 13.9786C5.63034 14.0038 5.50015 13.9784 5.3936 13.9077C5.28705 13.8371 5.21285 13.7272 5.18727 13.602L2.62963 1.24175Z" fill="#A7AABB"/>
<path fill-rule="evenodd" clip-rule="evenodd" d="M5.75775 13.9785C5.63245 14.0037 5.50226 13.9783 5.39572 13.9077C5.28917 13.8371 5.21497 13.7271 5.18939 13.6019C5.17638 13.5396 5.17582 13.4753 5.18774 13.4128C5.19965 13.3503 5.2238 13.2908 5.2588 13.2377C5.2938 13.1845 5.33896 13.1388 5.39169 13.1032C5.44441 13.0676 5.50365 13.0427 5.56601 13.0301L13.2732 11.438C13.3352 11.425 13.3993 11.4245 13.4616 11.4364C13.5238 11.4484 13.5831 11.4726 13.636 11.5076C13.6889 11.5427 13.7342 11.5878 13.7695 11.6405C13.8048 11.6932 13.8293 11.7524 13.8415 11.8146C13.8545 11.8767 13.855 11.9407 13.8431 12.003C13.8311 12.0653 13.8069 12.1246 13.7719 12.1774C13.7369 12.2303 13.6917 12.2757 13.639 12.311C13.5863 12.3463 13.5271 12.3707 13.4649 12.383L5.75775 13.9785Z" fill="#A7AABB"/>
<path fill-rule="evenodd" clip-rule="evenodd" d="M1.09585 2.05661C0.969649 2.08184 0.838589 2.056 0.731406 1.98476C0.624223 1.91352 0.549658 1.80269 0.524059 1.67656C0.49974 1.55136 0.525589 1.42162 0.596041 1.3153C0.666493 1.20898 0.775908 1.13459 0.900687 1.10819L3.03718 0.666514C3.16238 0.642195 3.29213 0.668054 3.39845 0.738506C3.50477 0.808958 3.57914 0.918352 3.60555 1.04313C3.63087 1.16885 3.60549 1.29949 3.53495 1.40658C3.46441 1.51368 3.35441 1.58856 3.22892 1.61493L1.09585 2.05661Z" fill="#A7AABB"/>
<path fill-rule="evenodd" clip-rule="evenodd" d="M5.26166 11.4003C5.82012 11.285 6.40152 11.3962 6.87795 11.7096C7.35439 12.0229 7.68684 12.5127 7.80218 13.0711C7.85979 13.3474 7.86233 13.6324 7.80968 13.9097C7.75702 14.187 7.6502 14.4512 7.49532 14.6872C7.34045 14.9231 7.14056 15.1263 6.9071 15.2849C6.67363 15.4435 6.41118 15.5546 6.13476 15.6116C5.5763 15.7269 4.9949 15.6157 4.51847 15.3023C4.04204 14.989 3.70958 14.4992 3.59424 13.9408C3.47979 13.3829 3.59097 12.8024 3.90346 12.3263C4.21595 11.8502 4.7043 11.5172 5.26166 11.4003Z" fill="#A7AABB"/>
</g>
<defs>
<clipPath id="clip0_534_13072">
<rect width="13.3326" height="15" fill="white" transform="translate(0.519043 0.65625)"/>
</clipPath>
</defs>
</svg>
