<svg width="19" height="19" viewBox="0 0 19 19" fill="none" xmlns="http://www.w3.org/2000/svg">
<path d="M18.4016 17.052L13.9643 12.5964C15.1052 11.287 15.7303 9.63948 15.7303 7.92435C15.7303 3.91712 12.3534 0.65686 8.20281 0.65686C4.0522 0.65686 0.675293 3.91712 0.675293 7.92435C0.675293 11.9316 4.0522 15.1918 8.20281 15.1918C9.76101 15.1918 11.2459 14.7381 12.5154 13.8767L16.9864 18.3662C17.1733 18.5535 17.4247 18.6569 17.694 18.6569C17.949 18.6569 18.1908 18.563 18.3745 18.3924C18.7646 18.03 18.777 17.429 18.4016 17.052ZM8.20281 2.55273C11.2708 2.55273 13.7666 4.96238 13.7666 7.92435C13.7666 10.8863 11.2708 13.296 8.20281 13.296C5.13486 13.296 2.63899 10.8863 2.63899 7.92435C2.63899 4.96238 5.13486 2.55273 8.20281 2.55273Z" fill="#A7AABB"/>
</svg>
