<svg width="41" height="42" viewBox="0 0 41 42" fill="none" xmlns="http://www.w3.org/2000/svg">
<mask id="path-1-inside-1_2057_30196" fill="white">
<path d="M28.6169 23.5124C27.734 24.4188 26.6712 25.0748 25.4909 25.5324C24.3752 25.9648 23.1525 26.1825 21.942 26.3277C22.1253 26.5265 22.2113 26.6242 22.3254 26.7383C23.9679 28.3896 25.6184 30.0326 27.2555 31.6885C27.8133 32.2531 27.9295 32.9527 27.6225 33.6083C27.2873 34.3255 26.5353 34.7969 25.7975 34.7462C25.3302 34.7139 24.9657 34.4819 24.6424 34.156C23.4025 32.9086 22.1392 31.6835 20.9253 30.4126C20.5709 30.0426 20.4014 30.1131 20.089 30.4344C18.842 31.7187 17.5744 32.9825 16.2998 34.2395C15.7272 34.8041 15.0461 34.9064 14.3817 34.5835C13.6758 34.242 13.227 33.521 13.2614 32.7958C13.2857 32.3067 13.5264 31.9318 13.8628 31.5971C15.489 29.9742 17.1101 28.3464 18.7317 26.7198C18.8394 26.612 18.9393 26.4975 19.0957 26.3298C16.884 26.0986 14.8896 25.5542 13.1821 24.2192C12.9698 24.0531 12.7513 23.8928 12.5584 23.7066C11.8105 22.9889 11.7354 22.1664 12.3264 21.32C12.8327 20.5952 13.6816 20.4014 14.5645 20.8179C14.7357 20.898 14.8984 20.9995 15.0544 21.1069C18.2363 23.2935 22.6077 23.3534 25.8021 21.2047C26.1184 20.9631 26.4569 20.7642 26.849 20.664C27.6107 20.4677 28.3221 20.7483 28.7306 21.4152C29.1983 22.1773 29.1928 22.9206 28.6169 23.5124Z"/>
<path fill-rule="evenodd" clip-rule="evenodd" d="M20.5294 6.2341C24.5224 6.245 27.7273 9.51116 27.7068 13.5482C27.6866 17.4922 24.4293 20.6887 20.443 20.6753C16.4973 20.6619 13.2613 17.3907 13.2848 13.4388C13.3071 9.44363 16.5447 6.22319 20.5294 6.2341ZM24.0285 13.4488C24.0356 15.4105 22.4765 16.983 20.519 16.9901C18.5552 16.9973 16.9786 15.4462 16.9639 13.4916C16.9488 11.5114 18.5259 9.92094 20.5006 9.92304C22.4589 9.92472 24.0213 11.4863 24.0285 13.4488Z"/>
</mask>
<path d="M28.6169 23.5124C27.734 24.4188 26.6712 25.0748 25.4909 25.5324C24.3752 25.9648 23.1525 26.1825 21.942 26.3277C22.1253 26.5265 22.2113 26.6242 22.3254 26.7383C23.9679 28.3896 25.6184 30.0326 27.2555 31.6885C27.8133 32.2531 27.9295 32.9527 27.6225 33.6083C27.2873 34.3255 26.5353 34.7969 25.7975 34.7462C25.3302 34.7139 24.9657 34.4819 24.6424 34.156C23.4025 32.9086 22.1392 31.6835 20.9253 30.4126C20.5709 30.0426 20.4014 30.1131 20.089 30.4344C18.842 31.7187 17.5744 32.9825 16.2998 34.2395C15.7272 34.8041 15.0461 34.9064 14.3817 34.5835C13.6758 34.242 13.227 33.521 13.2614 32.7958C13.2857 32.3067 13.5264 31.9318 13.8628 31.5971C15.489 29.9742 17.1101 28.3464 18.7317 26.7198C18.8394 26.612 18.9393 26.4975 19.0957 26.3298C16.884 26.0986 14.8896 25.5542 13.1821 24.2192C12.9698 24.0531 12.7513 23.8928 12.5584 23.7066C11.8105 22.9889 11.7354 22.1664 12.3264 21.32C12.8327 20.5952 13.6816 20.4014 14.5645 20.8179C14.7357 20.898 14.8984 20.9995 15.0544 21.1069C18.2363 23.2935 22.6077 23.3534 25.8021 21.2047C26.1184 20.9631 26.4569 20.7642 26.849 20.664C27.6107 20.4677 28.3221 20.7483 28.7306 21.4152C29.1983 22.1773 29.1928 22.9206 28.6169 23.5124Z" fill="#47413B"/>
<path fill-rule="evenodd" clip-rule="evenodd" d="M20.5294 6.2341C24.5224 6.245 27.7273 9.51116 27.7068 13.5482C27.6866 17.4922 24.4293 20.6887 20.443 20.6753C16.4973 20.6619 13.2613 17.3907 13.2848 13.4388C13.3071 9.44363 16.5447 6.22319 20.5294 6.2341ZM24.0285 13.4488C24.0356 15.4105 22.4765 16.983 20.519 16.9901C18.5552 16.9973 16.9786 15.4462 16.9639 13.4916C16.9488 11.5114 18.5259 9.92094 20.5006 9.92304C22.4589 9.92472 24.0213 11.4863 24.0285 13.4488Z" fill="#47413B"/>
<path d="M20.5 -0.5C8.90198 -0.5 -0.5 8.90241 -0.5 20.5H0.5C0.5 9.45468 9.45428 0.5 20.5 0.5V-0.5ZM-0.5 20.5C-0.5 32.0976 8.90198 41.5 20.5 41.5V40.5C9.45428 40.5 0.5 31.5453 0.5 20.5H-0.5ZM20.5 41.5C32.098 41.5 41.5 32.0976 41.5 20.5H40.5C40.5 31.5453 31.5457 40.5 20.5 40.5V41.5ZM41.5 20.5C41.5 8.90241 32.098 -0.5 20.5 -0.5V0.5C31.5457 0.5 40.5 9.45468 40.5 20.5H41.5ZM20.519 16.9901L20.5227 17.9901H20.5227L20.519 16.9901ZM24.0285 13.4488L23.0285 13.4525V13.4525L24.0285 13.4488ZM20.5006 9.92304L20.4995 10.923H20.4997L20.5006 9.92304ZM16.9639 13.4916L17.9639 13.4841L17.9639 13.484L16.9639 13.4916ZM20.5294 6.2341L20.5266 7.23409H20.5266L20.5294 6.2341ZM27.7068 13.5482L28.7068 13.5534V13.5533L27.7068 13.5482ZM20.443 20.6753L20.4396 21.6753H20.4396L20.443 20.6753ZM13.2848 13.4388L14.2848 13.4447L14.2848 13.4443L13.2848 13.4388ZM28.6169 23.5124L29.3333 24.2102L29.3336 24.2098L28.6169 23.5124ZM25.4909 25.5324L25.8523 26.4648L25.8524 26.4648L25.4909 25.5324ZM21.942 26.3277L21.823 25.3348L19.8811 25.5676L21.2068 27.0055L21.942 26.3277ZM22.3254 26.7383L23.0344 26.0331L23.0325 26.0312L22.3254 26.7383ZM27.2555 31.6885L27.9668 30.9856L27.9666 30.9855L27.2555 31.6885ZM27.6225 33.6083L26.7169 33.1841L26.7165 33.1849L27.6225 33.6083ZM25.7975 34.7462L25.7285 35.7438L25.7289 35.7438L25.7975 34.7462ZM24.6424 34.156L25.3522 33.4517L25.3516 33.4511L24.6424 34.156ZM20.9253 30.4126L21.6485 29.7219L21.6474 29.7208L20.9253 30.4126ZM20.089 30.4344L19.3721 29.7372L19.3715 29.7378L20.089 30.4344ZM16.2998 34.2395L17.0019 34.9516L17.0019 34.9515L16.2998 34.2395ZM14.3817 34.5835L14.8189 33.6841L14.8171 33.6832L14.3817 34.5835ZM13.2614 32.7958L12.2626 32.7461L12.2625 32.7484L13.2614 32.7958ZM13.8628 31.5971L14.5682 32.3059L14.5692 32.3049L13.8628 31.5971ZM18.7317 26.7198L18.0245 26.0127L18.0235 26.0138L18.7317 26.7198ZM19.0957 26.3298L19.8271 27.0118L21.196 25.5438L19.1997 25.3352L19.0957 26.3298ZM13.1821 24.2192L12.5658 25.0067L12.5661 25.0069L13.1821 24.2192ZM12.5584 23.7066L13.2529 22.9871L13.2508 22.9851L12.5584 23.7066ZM12.3264 21.32L11.5066 20.7474L11.5065 20.7475L12.3264 21.32ZM14.5645 20.8179L14.1379 21.7224L14.1406 21.7236L14.5645 20.8179ZM15.0544 21.1069L14.4875 21.9307L14.4881 21.9311L15.0544 21.1069ZM25.8021 21.2047L26.3602 22.0344L26.3852 22.0176L26.4092 21.9993L25.8021 21.2047ZM26.849 20.664L27.0967 21.6328L27.0986 21.6324L26.849 20.664ZM28.7306 21.4152L27.8779 21.9376L27.8783 21.9382L28.7306 21.4152ZM20.5227 17.9901C23.034 17.981 25.0376 15.9577 25.0285 13.4452L23.0285 13.4525C23.0336 14.8634 21.9191 15.985 20.5154 15.9901L20.5227 17.9901ZM25.0285 13.4452C25.0193 10.9342 23.0124 8.92519 20.5014 8.92304L20.4997 10.923C21.9055 10.9242 23.0233 12.0384 23.0285 13.4525L25.0285 13.4452ZM20.5016 8.92304C17.9691 8.92035 15.9446 10.9655 15.9639 13.4992L17.9639 13.484C17.953 12.0573 19.0826 10.9215 20.4995 10.923L20.5016 8.92304ZM15.9639 13.4991C15.9828 16.0092 18.0128 17.9992 20.5227 17.9901L20.5154 15.9901C19.0976 15.9953 17.9744 14.8832 17.9639 13.4841L15.9639 13.4991ZM20.5266 7.23409C23.9561 7.24346 26.7246 10.0488 26.7068 13.5432L28.7068 13.5533C28.7301 8.97353 25.0888 5.24655 20.5321 5.2341L20.5266 7.23409ZM26.7068 13.5431C26.6895 16.9257 23.891 19.6869 20.4463 19.6753L20.4396 21.6753C24.9676 21.6906 28.6838 18.0588 28.7068 13.5534L26.7068 13.5431ZM20.4464 19.6753C17.0554 19.6638 14.2646 16.8448 14.2848 13.4447L12.2849 13.4328C12.2581 17.9366 15.9392 21.66 20.4396 21.6753L20.4464 19.6753ZM14.2848 13.4443C14.304 9.99769 17.0958 7.2247 20.5266 7.23409L20.5321 5.2341C15.9936 5.22168 12.3101 8.88958 12.2849 13.4332L14.2848 13.4443ZM27.9006 22.8146C27.1322 23.6035 26.1967 24.1862 25.1294 24.6L25.8524 26.4648C27.1457 25.9634 28.3359 25.2341 29.3333 24.2102L27.9006 22.8146ZM25.1295 24.6C24.1298 24.9875 23.0043 25.1931 21.823 25.3348L22.0611 27.3206C23.3008 27.1719 24.6206 26.9422 25.8523 26.4648L25.1295 24.6ZM21.2068 27.0055C21.373 27.1858 21.4851 27.3122 21.6183 27.4454L23.0325 26.0312C22.9375 25.9362 22.8776 25.8672 22.6772 25.6498L21.2068 27.0055ZM21.6164 27.4435C23.2645 29.1004 24.9078 30.7361 26.5443 32.3915L27.9666 30.9855C26.329 29.329 24.6713 27.6788 23.0344 26.0331L21.6164 27.4435ZM26.5441 32.3914C26.8211 32.6716 26.8383 32.9249 26.7169 33.1841L28.5281 34.0324C29.0207 32.9804 28.8055 31.8345 27.9668 30.9856L26.5441 32.3914ZM26.7165 33.1849C26.5384 33.5661 26.1508 33.7681 25.8661 33.7485L25.7289 35.7438C26.9197 35.8257 28.0363 35.0849 28.5284 34.0316L26.7165 33.1849ZM25.8664 33.7486C25.7277 33.739 25.5775 33.6787 25.3522 33.4517L23.9325 34.8604C24.354 35.2852 24.9327 35.6888 25.7285 35.7438L25.8664 33.7486ZM25.3516 33.4511C24.0936 32.1854 22.854 30.984 21.6485 29.7219L20.2022 31.1033C21.4244 32.3829 22.7114 33.6318 23.9331 34.861L25.3516 33.4511ZM21.6474 29.7208C21.4525 29.5173 21.0268 29.1109 20.4 29.1684C20.1025 29.1957 19.8749 29.3209 19.7261 29.4256C19.5821 29.5269 19.4605 29.6462 19.3721 29.7372L20.8058 31.1316C20.8736 31.0619 20.8904 31.0519 20.8772 31.0612C20.8591 31.0739 20.7546 31.1443 20.5828 31.1601C20.3965 31.1772 20.2567 31.1195 20.1925 31.0827C20.1441 31.0551 20.1447 31.0433 20.2032 31.1044L21.6474 29.7208ZM19.3715 29.7378C18.1317 31.0146 16.87 32.2727 15.5976 33.5275L17.0019 34.9515C18.2789 33.6922 19.5522 32.4227 20.8064 31.131L19.3715 29.7378ZM15.5976 33.5275C15.4334 33.6894 15.2992 33.7427 15.2059 33.7587C15.1137 33.7746 14.9886 33.7666 14.8189 33.6841L13.9445 35.4828C14.4391 35.7233 14.9868 35.8256 15.5444 35.7299C16.1009 35.6343 16.5936 35.3542 17.0019 34.9516L15.5976 33.5275ZM14.8171 33.6832C14.439 33.5003 14.2465 33.1329 14.2602 32.8432L12.2625 32.7484C12.2074 33.9092 12.9125 34.9837 13.9463 35.4837L14.8171 33.6832ZM14.2601 32.8455C14.2674 32.6989 14.3278 32.5451 14.5682 32.3059L13.1575 30.8882C12.7251 31.3184 12.3039 31.9146 12.2626 32.7461L14.2601 32.8455ZM14.5692 32.3049C16.1965 30.6809 17.8188 29.0519 19.4399 27.4258L18.0235 26.0138C16.4014 27.6409 14.7814 29.2676 13.1564 30.8892L14.5692 32.3049ZM19.4388 27.4269C19.5617 27.304 19.7007 27.1473 19.8271 27.0118L18.3644 25.6478C18.1779 25.8478 18.1172 25.92 18.0245 26.0127L19.4388 27.4269ZM19.1997 25.3352C17.0834 25.114 15.299 24.605 13.798 23.4314L12.5661 25.0069C14.4802 26.5035 16.6847 27.0833 18.9918 27.3243L19.1997 25.3352ZM13.7984 23.4316C13.5516 23.2385 13.397 23.1262 13.2529 22.9871L11.8639 24.4261C12.1057 24.6595 12.3881 24.8676 12.5658 25.0067L13.7984 23.4316ZM13.2508 22.9851C13.0027 22.747 12.9459 22.5716 12.9358 22.4663C12.9256 22.36 12.9489 22.1753 13.1463 21.8925L11.5065 20.7475C11.113 21.3111 10.8783 21.9609 10.9449 22.6568C11.0116 23.3538 11.3662 23.9485 11.866 24.4281L13.2508 22.9851ZM13.1462 21.8926C13.2672 21.7195 13.3989 21.6447 13.5241 21.6165C13.6569 21.5866 13.8622 21.5923 14.1379 21.7224L14.9912 19.9135C14.3839 19.6271 13.7233 19.5214 13.0843 19.6655C12.4378 19.8112 11.8919 20.1957 11.5066 20.7474L13.1462 21.8926ZM14.1406 21.7236C14.2416 21.7709 14.3536 21.8385 14.4875 21.9307L15.6213 20.2831C15.4432 20.1606 15.2297 20.0252 14.9885 19.9123L14.1406 21.7236ZM14.4881 21.9311C18.0008 24.345 22.8181 24.4171 26.3602 22.0344L25.244 20.3749C22.3973 22.2898 18.4718 22.2419 15.6208 20.2828L14.4881 21.9311ZM26.4092 21.9993C26.6647 21.8041 26.8813 21.6879 27.0967 21.6328L26.6014 19.6952C26.0324 19.8406 25.572 20.122 25.195 20.41L26.4092 21.9993ZM27.0986 21.6324C27.4441 21.5433 27.7039 21.6535 27.8779 21.9376L29.5833 20.8929C28.9403 19.8431 27.7774 19.3921 26.5995 19.6956L27.0986 21.6324ZM27.8783 21.9382C28.0386 22.1995 28.0704 22.3806 28.066 22.4858C28.0624 22.5725 28.033 22.6786 27.9003 22.815L29.3336 24.2098C29.7768 23.7544 30.0381 23.1929 30.0642 22.5696C30.0896 21.9646 29.8903 21.393 29.5829 20.8922L27.8783 21.9382Z" fill="#47413B" mask="url(#path-1-inside-1_2057_30196)"/>
<path d="M40.5 20.502C40.5 31.5477 31.5457 40.502 20.5 40.502C9.45431 40.502 0.5 31.5477 0.5 20.502C0.5 9.45627 9.45431 0.501953 20.5 0.501953C31.5457 0.501953 40.5 9.45627 40.5 20.502Z" stroke="#47413B"/>
</svg>
