<svg width="20" height="21" viewBox="0 0 20 21" fill="none" xmlns="http://www.w3.org/2000/svg">
<g clip-path="url(#clip0_491_21074)">
<path fill-rule="evenodd" clip-rule="evenodd" d="M0.832768 3.5425C0.77265 3.11731 0.804511 2.68417 0.926198 2.27236C1.04789 1.86055 1.25656 1.47966 1.53812 1.15544C1.81969 0.831215 2.16757 0.571216 2.55826 0.393015C2.94896 0.214814 3.37335 0.122563 3.80277 0.122498L16.1938 0.122498C16.6236 0.122481 17.0484 0.214819 17.4394 0.393257C17.8304 0.571696 18.1785 0.83207 18.4601 1.15675C18.7417 1.48143 18.9503 1.86283 19.0717 2.27513C19.1931 2.68743 19.2245 3.12101 19.1638 3.5465L18.9898 4.7635L17.0098 4.4815L17.1838 3.2635C17.204 3.12169 17.1935 2.9772 17.153 2.83981C17.1125 2.70242 17.0429 2.57533 16.9491 2.46714C16.8552 2.35895 16.7392 2.27219 16.6089 2.21273C16.4786 2.15327 16.337 2.1225 16.1938 2.1225H3.80377C3.66063 2.12252 3.51916 2.15327 3.38893 2.21267C3.2587 2.27207 3.14274 2.35874 3.04889 2.46681C2.95503 2.57489 2.88547 2.70185 2.84491 2.83912C2.80435 2.97639 2.79373 3.12077 2.81377 3.2625L4.79677 17.2625C4.8305 17.5011 4.94923 17.7194 5.13112 17.8774C5.31301 18.0354 5.54583 18.1225 5.78677 18.1225H14.2828C14.5168 18.1226 14.7435 18.0406 14.9233 17.8907C15.1031 17.7409 15.2246 17.5327 15.2668 17.3025L15.5168 15.9425L17.4838 16.3025L17.2338 17.6635C17.1072 18.3537 16.7428 18.9776 16.2038 19.4269C15.6648 19.8762 14.9854 20.1223 14.2838 20.1225H5.78577C5.06296 20.1224 4.36449 19.8613 3.81882 19.3873C3.27315 18.9133 2.91696 18.2582 2.81577 17.5425L0.831768 3.5425H0.832768Z" fill="#0F111D"/>
<path fill-rule="evenodd" clip-rule="evenodd" d="M15.4998 13.1225V7.1225H17.4998V13.1225H15.4998Z" fill="#0F111D"/>
<path fill-rule="evenodd" clip-rule="evenodd" d="M13.4998 9.1225H19.4998V11.1225H13.4998V9.1225Z" fill="#0F111D"/>
</g>
<defs>
<clipPath id="clip0_491_21074">
<rect width="19" height="20" fill="white" transform="translate(0.499756 0.122498)"/>
</clipPath>
</defs>
</svg>
