<svg width="40" height="41" viewBox="0 0 40 41" fill="none" xmlns="http://www.w3.org/2000/svg">
<path d="M20 40.1609C31.0457 40.1609 40 31.2066 40 20.1609C40 9.11519 31.0457 0.160889 20 0.160889C8.9543 0.160889 0 9.11519 0 20.1609C0 31.2066 8.9543 40.1609 20 40.1609Z" fill="#0F111D"/>
<path d="M31.4187 28.2305C30.9362 29.593 29.0212 30.723 27.4937 31.053C26.4487 31.2755 25.0837 31.453 20.4887 29.548C14.6112 27.113 10.8262 21.1405 10.5312 20.753C10.2487 20.3655 8.15625 17.5905 8.15625 14.7205C8.15625 11.8505 9.61375 10.453 10.2012 9.853C10.6837 9.3605 11.4812 9.1355 12.2462 9.1355C12.4937 9.1355 12.7162 9.148 12.9162 9.158C13.5037 9.183 13.7987 9.218 14.1862 10.1455C14.6687 11.308 15.8437 14.178 15.9837 14.473C16.1262 14.768 16.2687 15.168 16.0687 15.5555C15.8812 15.9555 15.7162 16.133 15.4212 16.473C15.1262 16.813 14.8462 17.073 14.5512 17.438C14.2812 17.7555 13.9762 18.0955 14.3162 18.683C14.6562 19.258 15.8312 21.1755 17.5612 22.7155C19.7937 24.703 21.6037 25.338 22.2512 25.608C22.7337 25.808 23.3087 25.7605 23.6612 25.3855C24.1087 24.903 24.6612 24.103 25.2237 23.3155C25.6237 22.7505 26.1287 22.6805 26.6587 22.8805C27.1987 23.068 30.0562 24.4805 30.6437 24.773C31.2312 25.068 31.6187 25.208 31.7612 25.4555C31.9012 25.703 31.9012 26.8655 31.4187 28.2305Z" fill="white"/>
</svg>
