<svg width="40" height="40" viewBox="0 0 40 40" fill="none" xmlns="http://www.w3.org/2000/svg">
<path d="M20 0C8.97156 0 0 8.97156 0 20C0 31.0284 8.97156 40 20 40C31.0284 40 40 31.0284 40 20C40 8.97156 31.0284 0 20 0Z" fill="#F32B37"/>
<path d="M31.0078 25.7628L28.6115 23.3665C28.1778 22.9331 27.6346 22.6254 27.0399 22.4765C26.4451 22.3275 25.821 22.3428 25.2342 22.5206C24.6474 22.6985 24.1199 23.0323 23.7079 23.4864C23.296 23.9406 23.015 24.498 22.895 25.0993C18.9434 24.3604 15.1002 20.5329 14.8609 17.1119C15.5327 16.9883 16.151 16.6632 16.6335 16.1797C17.2688 15.5443 17.6257 14.6826 17.6257 13.7841C17.6257 12.8856 17.2688 12.0239 16.6335 11.3885L14.2379 8.9922C13.6025 8.3569 12.7408 8 11.8423 8C10.9438 8 10.0821 8.3569 9.44667 8.9922C2.25917 16.1797 23.8203 37.7408 31.0078 30.5533C31.6427 29.9179 31.9994 29.0564 31.9994 28.1581C31.9994 27.2598 31.6427 26.3982 31.0078 25.7628Z" fill="white"/>
</svg>
