<svg width="246" height="31" viewBox="0 0 246 31" fill="none" xmlns="http://www.w3.org/2000/svg">
<path d="M4.1173 13.3816V4.09486H23.5957C25.7933 4.09486 27.3487 4.52282 28.262 5.37875C29.2038 6.23466 29.6747 7.36163 29.6747 8.75963C29.6747 10.2432 29.2038 11.3844 28.262 12.1833C27.3487 12.9822 25.7219 13.3816 23.3817 13.3816H4.1173ZM32.7998 8.54565C32.7998 5.92083 32.0007 3.98074 30.4025 2.72539C28.8328 1.44151 26.2927 0.799573 22.7823 0.799573H0.992188V30.5H4.1173V16.7197H24.5375C25.8218 16.7197 26.8778 16.8053 27.7054 16.9765C28.5331 17.1476 29.1895 17.433 29.6747 17.8324C30.1599 18.2318 30.4881 18.7596 30.6593 19.4158C30.8591 20.072 30.959 20.8709 30.959 21.8124V30.5H34.2981V21.7696C34.2981 20.4857 34.1554 19.4016 33.87 18.5171C33.6132 17.6327 33.2707 16.9051 32.8426 16.3345C32.4431 15.7354 31.9864 15.2932 31.4727 15.0078C30.959 14.694 30.4595 14.4943 29.9744 14.4087C30.3454 14.266 30.7021 14.0806 31.0446 13.8524C31.3871 13.5956 31.6868 13.2532 31.9436 12.8252C32.2005 12.3688 32.4002 11.7981 32.5429 11.1134C32.7142 10.4287 32.7998 9.57275 32.7998 8.54565Z" fill="#0F111D"/>
<path d="M53.893 27.3759C51.2102 27.3759 49.0697 27.276 47.4715 27.0763C45.9018 26.8766 44.7031 26.4201 43.8755 25.7068C43.0478 24.965 42.5056 23.9094 42.2487 22.5399C42.0204 21.1419 41.9062 19.2589 41.9062 16.8909V0.799573H38.8239V16.8909C38.8239 19.7154 39.0237 22.0121 39.4233 23.781C39.8228 25.5499 40.5649 26.9337 41.6494 27.9322C42.7624 28.9308 44.2893 29.6155 46.23 29.9864C48.1993 30.3288 50.7536 30.5 53.893 30.5H58.5164C61.6272 30.5 64.153 30.3288 66.0937 29.9864C68.0344 29.6155 69.547 28.9308 70.6315 27.9322C71.7446 26.9337 72.5009 25.5499 72.9005 23.781C73.3 22.0121 73.4998 19.7154 73.4998 16.8909V0.799573H70.4175V16.8909C70.4175 19.2589 70.2891 21.1419 70.0322 22.5399C69.8039 23.9094 69.2759 24.965 68.4482 25.7068C67.6206 26.4201 66.4219 26.8766 64.8522 27.0763C63.2825 27.276 61.1563 27.3759 58.4736 27.3759H53.893Z" fill="#0F111D"/>
<path d="M77.9099 0.799573V30.5H80.9922V3.15335H82.6617L98.3301 30.5H100.471L116.439 3.15335H118.108V30.5H121.19V0.799573H114.555L99.5288 26.1348L84.8878 0.799573H77.9099Z" fill="#0F111D"/>
<path d="M125.644 16.8909C125.644 19.6869 125.829 21.9693 126.2 23.7382C126.6 25.5071 127.285 26.8909 128.255 27.8894C129.254 28.888 130.595 29.5728 132.279 29.9437C133.963 30.3146 136.089 30.5 138.658 30.5H149.66C151.972 30.5 153.827 30.3003 155.225 29.9009C156.652 29.5014 157.751 28.7882 158.522 27.7611C159.292 26.7054 160.063 25.3868 160.063 23.4387C160.063 21.4905 160.063 19.2732 160.063 16.4201H142.554V19.5014H156.766C156.766 20.019 156.766 20.4935 156.766 20.9368C156.766 22.7421 156.844 24.7729 155.568 26.0492C155.025 26.6198 154.269 27.005 153.299 27.2047C152.357 27.3759 151.144 27.4615 149.66 27.4615H138.315C136.318 27.4615 134.691 27.3474 133.435 27.1191C132.179 26.8623 131.195 26.363 130.481 25.6213C129.796 24.8795 129.325 23.8238 129.068 22.4543C128.84 21.0563 128.726 19.2019 128.726 16.8909V14.1519C128.726 11.898 128.869 10.0863 129.154 8.71683C129.439 7.31883 129.967 6.24893 130.738 5.50713C131.509 4.7368 132.565 4.22325 133.906 3.96648C135.247 3.7097 136.974 3.58131 139.086 3.58131H149.66C151.115 3.58131 152.328 3.7097 153.299 3.96648C154.298 4.19472 155.083 4.53709 155.653 4.99358C156.739 5.82028 156.861 7.22971 156.886 8.59385C156.888 8.70378 156.891 8.81575 156.895 8.93081H160.063C160.063 6.04922 159.52 3.92368 157.751 2.55421C155.982 1.18474 153.285 0.5 149.66 0.5H139.514C136.86 0.5 134.634 0.699715 132.836 1.09914C131.066 1.49857 129.639 2.21184 128.555 3.23894C127.499 4.26605 126.742 5.66405 126.286 7.43295C125.858 9.20185 125.644 11.4558 125.644 14.1947V16.8909Z" fill="#0F111D"/>
<path d="M166.165 30.5H169.248V0.799573H166.165V30.5Z" fill="#0F111D"/>
<path d="M206.555 8.41726C206.555 6.02068 205.756 4.15193 204.157 2.81098C202.588 1.47004 200.048 0.799573 196.537 0.799573H175.946V30.5H179.242V17.7468H196.537C200.048 17.7468 202.588 17.0763 204.157 15.7354C205.756 14.3944 206.555 12.5257 206.555 10.1291V8.41726ZM179.242 3.88088H196.366C197.707 3.88088 198.82 3.98074 199.705 4.18046C200.59 4.38017 201.289 4.67974 201.803 5.07917C202.317 5.4786 202.673 5.96362 202.873 6.53424C203.101 7.10485 203.216 7.77532 203.216 8.54565V10.0007C203.216 10.771 203.101 11.4415 202.873 12.0121C202.673 12.5827 202.317 13.0678 201.803 13.4672C201.289 13.8666 200.59 14.1662 199.705 14.3659C198.82 14.5656 197.707 14.6655 196.366 14.6655H179.242V3.88088Z" fill="#0F111D"/>
<path d="M219.592 0.799573C216.51 0.799573 214.213 1.42725 212.7 2.6826C211.216 3.93795 210.474 5.96362 210.474 8.75963C210.474 10.1006 210.617 11.2561 210.902 12.2261C211.216 13.1961 211.801 13.995 212.657 14.6227C213.513 15.2504 214.698 15.7211 216.21 16.0349C217.723 16.3488 219.692 16.5342 222.118 16.5913L232.521 16.8481C234.604 16.9051 236.288 17.0335 237.572 17.2332C238.885 17.4044 239.898 17.6897 240.612 18.0892C241.325 18.4886 241.796 19.0164 242.025 19.6726C242.281 20.3003 242.41 21.0849 242.41 22.0264C242.41 24.0521 241.853 25.4643 240.74 26.2632C239.627 27.0335 237.901 27.4187 235.56 27.4187H221.476C220.02 27.4187 218.793 27.3046 217.794 27.0763C216.824 26.8195 216.039 26.4629 215.44 26.0064C214.869 25.5499 214.455 24.9936 214.198 24.3374C213.97 23.6526 213.842 22.8966 213.813 22.0692H210.731C210.731 24.9508 211.601 27.0763 213.342 28.4458C215.112 29.8153 217.48 30.5 220.448 30.5H235.732C237.444 30.5 238.914 30.3573 240.141 30.072C241.368 29.7867 242.381 29.316 243.18 28.6598C243.98 28.0036 244.565 27.1476 244.936 26.092C245.307 25.0078 245.492 23.6812 245.492 22.112C245.492 20.5999 245.278 19.3302 244.85 18.3031C244.422 17.276 243.68 16.4344 242.624 15.7782C241.596 15.122 240.184 14.6369 238.386 14.3231C236.616 14.0093 234.376 13.8238 231.665 13.7668L222.461 13.5528C220.548 13.5243 219.007 13.4244 217.837 13.2532C216.667 13.082 215.768 12.8252 215.14 12.4829C214.512 12.112 214.098 11.6412 213.899 11.0706C213.699 10.4715 213.599 9.71541 213.599 8.80242C213.599 8.00357 213.67 7.30456 213.813 6.70542C213.984 6.07775 214.284 5.56419 214.712 5.16477C215.169 4.7368 215.768 4.42297 216.51 4.22325C217.281 3.99501 218.265 3.88088 219.464 3.88088H234.49C235.946 3.88088 237.159 4.00927 238.129 4.26605C239.128 4.49429 239.913 4.83666 240.483 5.29315C241.083 5.74964 241.497 6.30599 241.725 6.9622C241.982 7.6184 242.124 8.3602 242.153 9.18759H245.278C245.278 6.36305 244.422 4.26605 242.71 2.89658C240.997 1.49857 238.486 0.799573 235.175 0.799573H219.592Z" fill="#0F111D"/>
</svg>
