<svg width="175" height="30" viewBox="0 0 175 30" fill="none" xmlns="http://www.w3.org/2000/svg">
<path d="M22.9955 27.2222H16.8351L11.0054 17.9575H6.66414V27.2222H0.958496V0.533768H12.5352C15.2088 0.533768 17.4828 1.39797 19.3571 3.12636C21.2315 4.85475 22.1686 6.93899 22.1686 9.37907C22.1686 11.0312 21.6587 12.569 20.6388 13.9924C19.619 15.3903 18.2684 16.4451 16.587 17.1568L22.9955 27.2222ZM12.5352 5.45206H0.958496V13.3442H12.5352C13.6101 13.3442 14.5335 12.9629 15.3053 12.2004C16.0771 11.4125 16.463 10.472 16.463 9.37907C16.463 8.28611 16.0771 7.35838 15.3053 6.59585C14.5335 5.83333 13.6101 5.45206 12.5352 5.45206Z" fill="#0F111D"/>
<path d="M36.9444 27.756C33.7194 27.756 31.0733 26.9172 29.0061 25.2396C26.9388 23.5621 25.9052 21.3126 25.9052 18.4913V0.533768H31.5695V18.0719C31.5695 19.4952 32.0105 20.6136 32.8925 21.427C33.8021 22.2149 35.1527 22.6089 36.9444 22.6089C38.736 22.6089 40.0728 22.2149 40.9549 21.427C41.8645 20.6136 42.3193 19.4952 42.3193 18.0719V0.533768H48.0249V18.4913C48.0249 21.3126 46.9913 23.5621 44.924 25.2396C42.8567 26.9172 40.1969 27.756 36.9444 27.756Z" fill="#0F111D"/>
<path d="M75.6154 0.533768H81.4865V27.2222H75.8221V9.91284L67.6771 22.3039H67.0156L58.8706 9.95096V27.2222H53.1649V0.533768H59.036L67.3464 13.1536L75.6154 0.533768Z" fill="#0F111D"/>
<path d="M100.771 12.8867H115.283V14.9455C115.283 18.7581 113.96 21.8464 111.314 24.2102C108.668 26.574 105.25 27.756 101.061 27.756C96.5952 27.756 92.8879 26.4215 89.9386 23.7527C87.0169 21.0584 85.556 17.7796 85.556 13.9161C85.556 10.0272 87.0031 6.73565 89.8973 4.04139C92.819 1.34713 96.4298 0 100.73 0C103.403 0 105.857 0.559186 108.089 1.67756C110.322 2.79593 112.072 4.30827 113.34 6.21459L108.461 8.80717C107.772 7.71422 106.725 6.82461 105.319 6.13834C103.913 5.45206 102.37 5.10893 100.688 5.10893C97.9045 5.10893 95.6305 5.94771 93.8664 7.62526C92.1024 9.25199 91.2203 11.3489 91.2203 13.9161C91.2203 16.4324 92.1162 18.5167 93.9078 20.1688C95.6994 21.7955 98.0974 22.6089 101.102 22.6089C103.279 22.6089 105.099 22.1641 106.559 21.2745C108.02 20.3849 109.013 19.1394 109.536 17.5381H100.771V12.8867Z" fill="#0F111D"/>
<path d="M119.342 27.2222V9.76747H125.047V27.2222H119.342Z" fill="#0F111D"/>
<path d="M163.866 27.756C161.027 27.756 158.629 27.1714 156.672 26.0021C154.715 24.8329 153.323 23.2189 152.496 21.1601L157.375 18.5294C158.505 21.2491 160.724 22.6089 164.031 22.6089C165.575 22.6089 166.732 22.3547 167.504 21.8464C168.276 21.338 168.662 20.6517 168.662 19.7875C168.662 18.8471 168.207 18.1227 167.298 17.6143C166.388 17.0806 164.762 16.5087 162.419 15.8987C159.883 15.187 157.885 14.3609 156.424 13.4205C154.605 12.175 153.695 10.3449 153.695 7.93027C153.695 5.49019 154.618 3.57116 156.465 2.1732C158.312 0.724401 160.558 0 163.204 0C165.52 0 167.573 0.52106 169.365 1.56318C171.156 2.6053 172.548 4.07952 173.541 5.98583L168.745 8.54029C167.587 6.25271 165.74 5.10893 163.204 5.10893C162.047 5.10893 161.123 5.3631 160.434 5.87145C159.745 6.35439 159.401 6.98982 159.401 7.77777C159.401 8.61655 159.773 9.30282 160.517 9.83659C161.344 10.3704 162.805 10.9295 164.9 11.5141L166.884 12.1242C167.242 12.2258 167.863 12.4419 168.745 12.7723C169.572 13.0519 170.178 13.3188 170.564 13.573C171.914 14.3355 172.824 15.1234 173.293 15.9368C174.009 17.0043 174.368 18.2625 174.368 19.7113C174.368 22.1768 173.389 24.134 171.432 25.5828C169.475 27.0316 166.953 27.756 163.866 27.756Z" fill="#0F111D"/>
<path fill-rule="evenodd" clip-rule="evenodd" d="M141.196 0.533768H130.405V5.45206H141.196C142.409 5.45206 143.415 5.83333 144.214 6.59585C145.013 7.35838 145.413 8.32424 145.413 9.49345C145.413 10.6372 145.013 11.6031 144.214 12.391C143.415 13.1536 142.409 13.5348 141.196 13.5348H130.405V27.2222H136.11V18.4531H141.196C143.952 18.4531 146.295 17.5889 148.224 15.8605C150.126 14.1321 151.077 12.0098 151.077 9.49345C151.077 6.97711 150.126 4.85475 148.224 3.12636C146.295 1.39797 143.952 0.533768 141.196 0.533768Z" fill="#0F111D"/>
<path d="M17.1779 19.4009C15.844 19.9291 14.4074 20.2015 12.9556 20.2015H7.25506V29.4662H1.54942V2.77781H13.1261C15.7997 2.77781 18.0737 3.64201 19.9481 5.37041C21.8224 7.0988 22.7595 9.18303 22.7595 11.6231C22.7595 13.2753 22.2496 14.813 21.2298 16.2364C20.2099 17.6344 18.8593 18.6892 17.1779 19.4009ZM13.1261 7.69611H1.54942V15.5883H13.1261C14.2011 15.5883 15.1244 15.207 15.8962 14.4445C16.668 13.6565 17.0539 12.7161 17.0539 11.6231C17.0539 10.5302 16.668 9.60242 15.8962 8.8399C15.1244 8.07737 14.2011 7.69611 13.1261 7.69611Z" fill="white"/>
<path d="M37.5353 30C34.3104 30 31.6643 29.1612 29.597 27.4837C27.5297 25.8061 26.4961 23.5566 26.4961 20.7353V2.77781H32.1604V20.3159C32.1604 21.7393 32.6014 22.8577 33.4835 23.671C34.3931 24.459 35.7437 24.8529 37.5353 24.8529C39.3269 24.8529 40.6637 24.459 41.5458 23.671C42.4554 22.8577 42.9102 21.7393 42.9102 20.3159V2.77781H48.6158V20.7353C48.6158 23.5566 47.5822 25.8061 45.5149 27.4837C43.4477 29.1612 40.7878 30 37.5353 30Z" fill="white"/>
<path d="M76.2063 2.77781H82.0774V29.4662H76.4131V12.1569L68.2681 24.5479H67.6065L59.4615 12.195V29.4662H53.7559V2.77781H59.6269L67.9373 15.3976L76.2063 2.77781Z" fill="white"/>
<path d="M101.362 15.1307H115.874V17.1896C115.874 21.0022 114.551 24.0904 111.905 26.4543C109.259 28.8181 105.841 30 101.651 30C97.1861 30 93.4789 28.6656 90.5296 25.9967C87.6078 23.3025 86.147 20.0236 86.147 16.1601C86.147 12.2713 87.594 8.9797 90.4882 6.28544C93.41 3.59118 97.0208 2.24405 101.321 2.24405C103.994 2.24405 106.447 2.80323 108.68 3.9216C110.913 5.03998 112.663 6.55232 113.931 8.45864L109.052 11.0512C108.363 9.95827 107.316 9.06866 105.91 8.38238C104.504 7.69611 102.961 7.35297 101.279 7.35297C98.4954 7.35297 96.2214 8.19175 94.4574 9.86931C92.6933 11.496 91.8113 13.593 91.8113 16.1601C91.8113 18.6765 92.7071 20.7607 94.4987 22.4129C96.2903 24.0396 98.6884 24.8529 101.693 24.8529C103.87 24.8529 105.689 24.4081 107.15 23.5185C108.611 22.6289 109.604 21.3834 110.127 19.7821H101.362V15.1307Z" fill="white"/>
<path d="M119.932 29.4662V12.0115H125.638V29.4662H119.932Z" fill="white"/>
<path d="M164.457 30C161.618 30 159.22 29.4154 157.263 28.2462C155.306 27.077 153.914 25.463 153.087 23.4041L157.966 20.7734C159.096 23.4931 161.315 24.8529 164.622 24.8529C166.166 24.8529 167.323 24.5988 168.095 24.0904C168.867 23.5821 169.253 22.8958 169.253 22.0316C169.253 21.0911 168.798 20.3667 167.888 19.8584C166.979 19.3246 165.353 18.7527 163.01 18.1427C160.474 17.431 158.476 16.605 157.015 15.6645C155.195 14.419 154.286 12.589 154.286 10.1743C154.286 7.73424 155.209 5.81521 157.056 4.41725C158.903 2.96845 161.149 2.24405 163.795 2.24405C166.111 2.24405 168.164 2.76511 169.956 3.80723C171.747 4.84934 173.139 6.32356 174.132 8.22988L169.336 10.7843C168.178 8.49676 166.331 7.35297 163.795 7.35297C162.638 7.35297 161.714 7.60715 161.025 8.1155C160.336 8.59843 159.992 9.23387 159.992 10.0218C159.992 10.8606 160.364 11.5469 161.108 12.0806C161.935 12.6144 163.396 13.1736 165.49 13.7582L167.475 14.3682C167.833 14.4699 168.454 14.6859 169.336 15.0164C170.162 15.2959 170.769 15.5628 171.155 15.817C172.505 16.5795 173.415 17.3675 173.884 18.1808C174.6 19.2484 174.958 20.5065 174.958 21.9553C174.958 24.4208 173.98 26.378 172.023 27.8268C170.066 29.2756 167.544 30 164.457 30Z" fill="white"/>
<path fill-rule="evenodd" clip-rule="evenodd" d="M141.787 2.77781H130.996V7.69611H141.787C142.999 7.69611 144.006 8.07737 144.805 8.8399C145.604 9.60242 146.004 10.5683 146.004 11.7375C146.004 12.8813 145.604 13.8471 144.805 14.6351C144.006 15.3976 142.999 15.7789 141.787 15.7789H130.996V29.4662H136.701V20.6972H141.787C144.543 20.6972 146.886 19.833 148.815 18.1046C150.717 16.3762 151.668 14.2538 151.668 11.7375C151.668 9.22116 150.717 7.0988 148.815 5.37041C146.886 3.64201 144.543 2.77781 141.787 2.77781Z" fill="white"/>
<path d="M16.587 17.1568C15.253 17.6851 13.8164 17.9575 12.3647 17.9575H11.0054H6.66414V27.2222H0.958496V0.533768H12.5352C15.2088 0.533768 17.4828 1.39797 19.3571 3.12636C21.2315 4.85475 22.1686 6.93899 22.1686 9.37907C22.1686 11.0312 21.6587 12.569 20.6388 13.9924C19.619 15.3903 18.2684 16.4451 16.587 17.1568ZM12.5352 5.45206H0.958496V13.3442H12.5352C13.6101 13.3442 14.5335 12.9629 15.3053 12.2004C16.0771 11.4125 16.463 10.472 16.463 9.37907C16.463 8.28611 16.0771 7.35838 15.3053 6.59585C14.5335 5.83333 13.6101 5.45206 12.5352 5.45206Z" fill="#0F111D"/>
<path d="M36.9444 27.756C33.7194 27.756 31.0733 26.9172 29.0061 25.2396C26.9388 23.5621 25.9052 21.3126 25.9052 18.4913V0.533768H31.5695V18.0719C31.5695 19.4952 32.0105 20.6136 32.8925 21.427C33.8021 22.2149 35.1527 22.6089 36.9444 22.6089C38.736 22.6089 40.0728 22.2149 40.9549 21.427C41.8645 20.6136 42.3193 19.4952 42.3193 18.0719V0.533768H48.0249V18.4913C48.0249 21.3126 46.9913 23.5621 44.924 25.2396C42.8567 26.9172 40.1969 27.756 36.9444 27.756Z" fill="#0F111D"/>
<path d="M75.6154 0.533768H81.4865V27.2222H75.8221V9.91284L67.6771 22.3039H67.0156L58.8706 9.95096V27.2222H53.1649V0.533768H59.036L67.3464 13.1536L75.6154 0.533768Z" fill="#0F111D"/>
<path d="M100.771 12.8867H115.283V14.9455C115.283 18.7581 113.96 21.8464 111.314 24.2102C108.668 26.574 105.25 27.756 101.061 27.756C96.5952 27.756 92.8879 26.4215 89.9386 23.7527C87.0169 21.0584 85.556 17.7796 85.556 13.9161C85.556 10.0272 87.0031 6.73565 89.8973 4.04139C92.819 1.34713 96.4298 0 100.73 0C103.403 0 105.857 0.559186 108.089 1.67756C110.322 2.79593 112.072 4.30827 113.34 6.21459L108.461 8.80717C107.772 7.71422 106.725 6.82461 105.319 6.13834C103.913 5.45206 102.37 5.10893 100.688 5.10893C97.9045 5.10893 95.6305 5.94771 93.8664 7.62526C92.1024 9.25199 91.2203 11.3489 91.2203 13.9161C91.2203 16.4324 92.1162 18.5167 93.9078 20.1688C95.6994 21.7955 98.0974 22.6089 101.102 22.6089C103.279 22.6089 105.099 22.1641 106.559 21.2745C108.02 20.3849 109.013 19.1394 109.536 17.5381H100.771V12.8867Z" fill="#0F111D"/>
<path d="M119.342 27.2222V9.76747H125.047V27.2222H119.342Z" fill="#0F111D"/>
<path d="M163.866 27.756C161.027 27.756 158.629 27.1714 156.672 26.0021C154.715 24.8329 153.323 23.2189 152.496 21.1601L157.375 18.5294C158.505 21.2491 160.724 22.6089 164.031 22.6089C165.575 22.6089 166.732 22.3547 167.504 21.8464C168.276 21.338 168.662 20.6517 168.662 19.7875C168.662 18.8471 168.207 18.1227 167.298 17.6143C166.388 17.0806 164.762 16.5087 162.419 15.8987C159.883 15.187 157.885 14.3609 156.424 13.4205C154.605 12.175 153.695 10.3449 153.695 7.93027C153.695 5.49019 154.618 3.57116 156.465 2.1732C158.312 0.724401 160.558 0 163.204 0C165.52 0 167.573 0.52106 169.365 1.56318C171.156 2.6053 172.548 4.07952 173.541 5.98583L168.745 8.54029C167.587 6.25271 165.74 5.10893 163.204 5.10893C162.047 5.10893 161.123 5.3631 160.434 5.87145C159.745 6.35439 159.401 6.98982 159.401 7.77777C159.401 8.61655 159.773 9.30282 160.517 9.83659C161.344 10.3704 162.805 10.9295 164.9 11.5141L166.884 12.1242C167.242 12.2258 167.863 12.4419 168.745 12.7723C169.572 13.0519 170.178 13.3188 170.564 13.573C171.914 14.3355 172.824 15.1234 173.293 15.9368C174.009 17.0043 174.368 18.2625 174.368 19.7113C174.368 22.1768 173.389 24.134 171.432 25.5828C169.475 27.0316 166.953 27.756 163.866 27.756Z" fill="#0F111D"/>
<path fill-rule="evenodd" clip-rule="evenodd" d="M141.196 0.533768H130.405V5.45206H141.196C142.409 5.45206 143.415 5.83333 144.214 6.59585C145.013 7.35838 145.413 8.32424 145.413 9.49345C145.413 10.6372 145.013 11.6031 144.214 12.391C143.415 13.1536 142.409 13.5348 141.196 13.5348H130.405V27.2222H136.11V18.4531H141.196C143.952 18.4531 146.295 17.5889 148.224 15.8605C150.126 14.1321 151.077 12.0098 151.077 9.49345C151.077 6.97711 150.126 4.85475 148.224 3.12636C146.295 1.39797 143.952 0.533768 141.196 0.533768Z" fill="#0F111D"/>
<rect x="119.341" y="0.592285" width="5.67356" height="5.23184" fill="#0F111D"/>
</svg>
