<svg width="19" height="20" viewBox="0 0 19 20" fill="none" xmlns="http://www.w3.org/2000/svg">
<path d="M15.0693 0.678955C15.0693 0.402813 14.8455 0.178955 14.5693 0.178955C14.2932 0.178955 14.0693 0.402813 14.0693 0.678955L15.0693 0.678955ZM14.2158 19.0325C14.411 19.2278 14.7276 19.2278 14.9229 19.0325L18.1049 15.8505C18.3001 15.6553 18.3001 15.3387 18.1049 15.1434C17.9096 14.9482 17.593 14.9482 17.3978 15.1434L14.5693 17.9718L11.7409 15.1434C11.5456 14.9482 11.2291 14.9482 11.0338 15.1434C10.8385 15.3387 10.8385 15.6553 11.0338 15.8505L14.2158 19.0325ZM14.0693 0.678955L14.0693 18.679L15.0693 18.679L15.0693 0.678955L14.0693 0.678955Z" fill="#0F111D"/>
<path d="M4.92289 0.325402C4.72763 0.13014 4.41104 0.13014 4.21578 0.325402L1.0338 3.50738C0.83854 3.70264 0.83854 4.01923 1.0338 4.21449C1.22906 4.40975 1.54565 4.40975 1.74091 4.21449L4.56934 1.38606L7.39776 4.21449C7.59303 4.40975 7.90961 4.40975 8.10487 4.21449C8.30013 4.01923 8.30013 3.70264 8.10487 3.50738L4.92289 0.325402ZM4.06934 18.679C4.06934 18.9551 4.29319 19.179 4.56934 19.179C4.84548 19.179 5.06934 18.9551 5.06934 18.679L4.06934 18.679ZM4.06934 0.678955L4.06934 18.679L5.06934 18.679L5.06934 0.678955L4.06934 0.678955Z" fill="#0F111D"/>
</svg>
