<svg width="40" height="41" viewBox="0 0 40 41" fill="none" xmlns="http://www.w3.org/2000/svg">
<path d="M20 40.8391C31.0457 40.8391 40 31.8848 40 20.8391C40 9.79342 31.0457 0.839111 20 0.839111C8.9543 0.839111 0 9.79342 0 20.8391C0 31.8848 8.9543 40.8391 20 40.8391Z" fill="#039BE5"/>
<path d="M9.15015 20.4037L28.4335 12.9687C29.3285 12.6453 30.1101 13.187 29.8201 14.5403L29.8218 14.5387L26.5385 30.007C26.2951 31.1037 25.6435 31.3703 24.7318 30.8537L19.7318 27.1687L17.3201 29.492C17.0535 29.7587 16.8285 29.9837 16.3118 29.9837L16.6668 24.8953L25.9335 16.5237C26.3368 16.1687 25.8435 15.9687 25.3118 16.322L13.8602 23.532L8.92348 21.992C7.85182 21.652 7.82848 20.9203 9.15015 20.4037V20.4037Z" fill="white"/>
</svg>
