<svg width="41" height="41" viewBox="0 0 41 41" fill="none" xmlns="http://www.w3.org/2000/svg">
<path d="M20.5 41C31.8218 41 41 31.8218 41 20.5C41 9.17816 31.8218 0 20.5 0C9.17816 0 0 9.17816 0 20.5C0 31.8218 9.17816 41 20.5 41Z" fill="#4D76A1"/>
<path d="M20.4995 39.6333C31.0666 39.6333 39.6329 31.067 39.6329 20.5C39.6329 9.93295 31.0666 1.36666 20.4995 1.36666C9.9325 1.36666 1.36621 9.93295 1.36621 20.5C1.36621 31.067 9.9325 39.6333 20.4995 39.6333Z" fill="#4D76A1"/>
<path fill-rule="evenodd" clip-rule="evenodd" d="M19.7256 29.491H21.3346C21.3346 29.491 21.8207 29.4377 22.0688 29.1702C22.2972 28.9246 22.2899 28.4634 22.2899 28.4634C22.2899 28.4634 22.2585 26.3045 23.2605 25.9865C24.2482 25.6734 25.5166 28.0732 26.8611 28.9959C27.8777 29.6942 28.6502 29.5411 28.6502 29.5411L32.245 29.491C32.245 29.491 34.1255 29.3752 33.2338 27.8966C33.1608 27.7757 32.7146 26.8029 30.5611 24.804C28.3071 22.7119 28.6089 23.0503 31.3241 19.4314C32.9777 17.2275 33.6387 15.882 33.4323 15.3057C33.2353 14.7568 32.0191 14.9019 32.0191 14.9019L27.9716 14.9271C27.9716 14.9271 27.6716 14.8862 27.449 15.0192C27.2316 15.1497 27.0917 15.4537 27.0917 15.4537C27.0917 15.4537 26.4511 17.1592 25.5967 18.6096C23.7944 21.6701 23.0737 21.8316 22.7792 21.6416C22.094 21.1987 22.265 19.8623 22.265 18.9129C22.265 15.947 22.7149 14.7104 21.3891 14.3903C20.9491 14.2839 20.6253 14.2138 19.5002 14.2025C18.056 14.1875 16.8336 14.2068 16.1415 14.546C15.681 14.7714 15.3258 15.2739 15.5422 15.3028C15.8097 15.3386 16.4156 15.4661 16.7368 15.9035C17.1515 16.4678 17.1369 17.7351 17.1369 17.7351C17.1369 17.7351 17.3752 21.2264 16.5804 21.6602C16.0348 21.9577 15.2864 21.3503 13.6796 18.5738C12.8562 17.1515 12.2346 15.5794 12.2346 15.5794C12.2346 15.5794 12.1148 15.2856 11.901 15.1285C11.6416 14.9381 11.279 14.8774 11.279 14.8774L7.43287 14.9026C7.43287 14.9026 6.85549 14.9187 6.64354 15.1698C6.45498 15.393 6.62856 15.8549 6.62856 15.8549C6.62856 15.8549 9.63972 22.8997 13.0492 26.4499C16.1755 29.7048 19.7256 29.491 19.7256 29.491Z" fill="white"/>
</svg>
