<svg width="41" height="45" viewBox="0 0 41 45" fill="none" xmlns="http://www.w3.org/2000/svg">
<path d="M40.108 2.20702C39.9864 2.13679 39.8484 2.09982 39.708 2.09982C39.5676 2.09982 39.4296 2.13679 39.308 2.20702L38.9 2.39905C36.0826 3.91924 32.877 4.56736 29.6904 4.26105C26.5039 3.95473 23.4803 2.70782 21.004 0.678755C20.8615 0.563113 20.6835 0.5 20.5 0.5C20.3165 0.5 20.1385 0.563113 19.996 0.678755C17.5197 2.70782 14.4961 3.95473 11.3096 4.26105C8.12306 4.56736 4.91741 3.91924 2.10003 2.39905L1.70803 2.19102C1.58641 2.12079 1.44846 2.08382 1.30803 2.08382C1.1676 2.08382 1.02964 2.12079 0.908027 2.19102C0.783266 2.26115 0.679601 2.36348 0.607839 2.48732C0.536076 2.61117 0.498845 2.752 0.500027 2.89514V20.8183C0.499794 24.9582 1.65225 29.0165 3.82824 32.5383C6.00424 36.06 9.1178 38.9062 12.82 40.7577L20.14 44.4144C20.2517 44.4706 20.375 44.5 20.5 44.5C20.6251 44.5 20.7484 44.4706 20.86 44.4144L28.18 40.7577C31.8822 38.9062 34.9958 36.06 37.1718 32.5383C39.3478 29.0165 40.5002 24.9582 40.5 20.8183V2.89514C40.5 2.75628 40.4638 2.61982 40.3951 2.49917C40.3264 2.37852 40.2274 2.27784 40.108 2.20702ZM38.9 20.8183C38.8978 24.661 37.8266 28.4273 35.8062 31.6958C33.7858 34.9643 30.896 37.6061 27.46 39.3255L20.5 42.8061L13.54 39.3255C10.104 37.6061 7.21419 34.9643 5.19381 31.6958C3.17342 28.4273 2.10221 24.661 2.10003 20.8183V4.20737C5.04368 5.61866 8.32015 6.18846 11.5673 5.8538C14.8145 5.51914 17.906 4.29305 20.5 2.31104C23.0941 4.29305 26.1855 5.51914 29.4327 5.8538C32.6799 6.18846 35.9563 5.61866 38.9 4.20737V20.8183Z" fill="#75C067"/>
<path d="M8.26873 17.5306C8.11809 17.38 7.91377 17.2953 7.70073 17.2953C7.48769 17.2953 7.28338 17.38 7.13273 17.5306C6.98209 17.6813 6.89746 17.8856 6.89746 18.0987C6.89746 18.3118 6.98209 18.5162 7.13273 18.6668L16.7327 28.2685C16.8075 28.3427 16.8961 28.4013 16.9936 28.4411C17.0911 28.481 17.1954 28.5011 17.3007 28.5005C17.4914 28.5006 17.6758 28.4325 17.8207 28.3085L33.8207 14.7061C33.9006 14.6378 33.9662 14.5545 34.0138 14.4608C34.0614 14.3672 34.0902 14.265 34.0983 14.1603C34.1065 14.0555 34.094 13.9502 34.0614 13.8502C34.0289 13.7503 33.977 13.6578 33.9087 13.5779C33.8404 13.4981 33.7571 13.4325 33.6634 13.3848C33.5698 13.3372 33.4677 13.3084 33.3629 13.3003C33.2582 13.2921 33.1529 13.3046 33.053 13.3372C32.9531 13.3697 32.8606 13.4216 32.7807 13.4899L17.3487 26.6122L8.26873 17.5306Z" fill="#75C067"/>
</svg>
