<svg width="40" height="41" viewBox="0 0 40 41" fill="none" xmlns="http://www.w3.org/2000/svg">
<path d="M20.005 0.839111H19.995C8.9675 0.839111 0 9.80911 0 20.8391C0 25.2141 1.41 29.2691 3.8075 32.5616L1.315 39.9916L9.0025 37.5341C12.165 39.6291 15.9375 40.8391 20.005 40.8391C31.0325 40.8391 40 31.8666 40 20.8391C40 9.81161 31.0325 0.839111 20.005 0.839111Z" fill="#75C067"/>
<path d="M31.6404 28.9087C31.1579 30.2712 29.2429 31.4012 27.7154 31.7312C26.6704 31.9537 25.3054 32.1312 20.7104 30.2262C14.8329 27.7912 11.0479 21.8187 10.7529 21.4312C10.4704 21.0437 8.37793 18.2687 8.37793 15.3987C8.37793 12.5287 9.83543 11.1312 10.4229 10.5312C10.9054 10.0387 11.7029 9.81372 12.4679 9.81372C12.7154 9.81372 12.9379 9.82622 13.1379 9.83622C13.7254 9.86122 14.0204 9.89622 14.4079 10.8237C14.8904 11.9862 16.0654 14.8562 16.2054 15.1512C16.3479 15.4462 16.4904 15.8462 16.2904 16.2337C16.1029 16.6337 15.9379 16.8112 15.6429 17.1512C15.3479 17.4912 15.0679 17.7512 14.7729 18.1162C14.5029 18.4337 14.1979 18.7737 14.5379 19.3612C14.8779 19.9362 16.0529 21.8537 17.7829 23.3937C20.0154 25.3812 21.8254 26.0162 22.4729 26.2862C22.9554 26.4862 23.5304 26.4387 23.8829 26.0637C24.3304 25.5812 24.8829 24.7812 25.4454 23.9937C25.8454 23.4287 26.3504 23.3587 26.8804 23.5587C27.4204 23.7462 30.2779 25.1587 30.8654 25.4512C31.4529 25.7462 31.8404 25.8862 31.9829 26.1337C32.1229 26.3812 32.1229 27.5437 31.6404 28.9087Z" fill="#F8F8F8"/>
</svg>
