<svg width="256" height="256" viewBox="0 0 256 256" fill="none" xmlns="http://www.w3.org/2000/svg">
<circle cx="128" cy="128" r="128" fill="#F32B37"/>
<path d="M71.1362 118.888V79.8516H153.013C162.25 79.8516 168.788 81.6505 172.627 85.2483C176.586 88.8461 178.566 93.5833 178.566 99.4597C178.566 105.696 176.586 110.493 172.627 113.851C168.788 117.209 161.95 118.888 152.113 118.888H71.1362ZM191.702 98.5603C191.702 87.5269 188.343 79.3719 181.625 74.0951C175.027 68.6984 164.35 66 149.594 66H58V190.844H71.1362V132.919H156.972C162.37 132.919 166.809 133.279 170.288 133.999C173.767 134.718 176.526 135.918 178.566 137.597C180.605 139.276 181.985 141.494 182.704 144.253C183.544 147.011 183.964 150.369 183.964 154.326V190.844H198V154.147C198 148.75 197.4 144.193 196.201 140.475C195.121 136.757 193.681 133.699 191.882 131.3C190.202 128.782 188.283 126.923 186.123 125.724C183.964 124.405 181.865 123.565 179.825 123.205C181.385 122.606 182.884 121.826 184.324 120.867C185.763 119.787 187.023 118.348 188.103 116.549C189.183 114.631 190.022 112.232 190.622 109.354C191.342 106.475 191.702 102.878 191.702 98.5603Z" fill="white"/>
</svg>
