<svg width="257" height="257" viewBox="0 0 257 257" fill="none" xmlns="http://www.w3.org/2000/svg">
<circle cx="128.402" cy="128.431" r="128" fill="#F32B37"/>
<path d="M204.416 203.037H166.812L131.226 146.484H104.727V203.037H69.8984V40.1267H140.564C156.885 40.1267 170.766 45.4019 182.207 55.9523C193.648 66.5027 199.368 79.2252 199.368 94.1198C199.368 104.205 196.256 113.591 190.03 122.28C183.805 130.813 175.561 137.252 165.297 141.597L204.416 203.037ZM140.564 70.1488H69.8984V118.324H140.564C147.126 118.324 152.763 115.996 157.474 111.342C162.185 106.532 164.54 100.791 164.54 94.1198C164.54 87.4483 162.185 81.7852 157.474 77.1306C152.763 72.4761 147.126 70.1488 140.564 70.1488Z" fill="white"/>
<path d="M168.904 155.295C160.762 158.519 151.993 160.182 143.131 160.182H108.334V216.735H73.5055V53.8247H144.171C160.492 53.8247 174.373 59.0999 185.814 69.6503C197.255 80.2007 202.975 92.9232 202.975 107.818C202.975 117.903 199.863 127.29 193.637 135.978C187.412 144.511 179.168 150.95 168.904 155.295ZM144.171 83.8468H73.5055V132.022H144.171C150.733 132.022 156.37 129.694 161.081 125.04C165.792 120.23 168.147 114.489 168.147 107.818C168.147 101.146 165.792 95.4832 161.081 90.8287C156.37 86.1741 150.733 83.8468 144.171 83.8468Z" fill="#F32B37"/>
<path d="M165.297 141.597C157.155 144.821 148.385 146.484 139.524 146.484H131.226H104.727V203.037H69.8984V40.1267H140.564C156.885 40.1267 170.766 45.4019 182.207 55.9523C193.648 66.5027 199.368 79.2252 199.368 94.1198C199.368 104.205 196.256 113.591 190.03 122.28C183.805 130.813 175.561 137.252 165.297 141.597ZM140.564 70.1488H69.8984V118.324H140.564C147.126 118.324 152.763 115.996 157.474 111.342C162.185 106.532 164.54 100.791 164.54 94.1198C164.54 87.4483 162.185 81.7852 157.474 77.1306C152.763 72.4761 147.126 70.1488 140.564 70.1488Z" fill="white"/>
</svg>
