<svg width="51" height="50" viewBox="0 0 51 50" fill="none" xmlns="http://www.w3.org/2000/svg">
<circle cx="25.3181" cy="25" r="25" fill="#FAFAFC"/>
<g clip-path="url(#clip0_2375_10635)">
<path fill-rule="evenodd" clip-rule="evenodd" d="M15.7181 25.16V29.96C15.7181 30.2783 15.8445 30.5835 16.0696 30.8085C16.2946 31.0336 16.5999 31.16 16.9181 31.16H33.7181C34.0364 31.16 34.3416 31.0336 34.5666 30.8085C34.7917 30.5835 34.9181 30.2783 34.9181 29.96V25.16H37.3181V29.96C37.3181 30.9148 36.9388 31.8305 36.2637 32.5056C35.5886 33.1807 34.6729 33.56 33.7181 33.56H16.9181C15.9633 33.56 15.0477 33.1807 14.3725 32.5056C13.6974 31.8305 13.3181 30.9148 13.3181 29.96V25.16H15.7181Z" fill="#0F111D"/>
<path fill-rule="evenodd" clip-rule="evenodd" d="M18.4861 19.0652L20.1493 17.336L25.3177 22.2968L30.4861 17.3348L32.1493 19.0652L25.3177 25.6232L18.4861 19.0652Z" fill="#0F111D"/>
</g>
<defs>
<clipPath id="clip0_2375_10635">
<rect width="24" height="16.8" fill="white" transform="translate(13.3181 17)"/>
</clipPath>
</defs>
</svg>
