<svg width="200" height="200" viewBox="0 0 200 200" fill="none" xmlns="http://www.w3.org/2000/svg">
<path d="M26.9172 98.9028V93.2054H38.8672C40.2154 93.2054 41.1696 93.468 41.7299 93.9931C42.3077 94.5182 42.5966 95.2096 42.5966 96.0673C42.5966 96.9774 42.3077 97.6776 41.7299 98.1677C41.1696 98.6578 40.1716 98.9028 38.7359 98.9028H26.9172ZM44.5139 95.936C44.5139 94.3257 44.0236 93.1354 43.0431 92.3653C42.0801 91.5776 40.5218 91.1838 38.3682 91.1838H25V109.405H26.9172V100.951H39.445C40.2329 100.951 40.8807 101.003 41.3885 101.108C41.8963 101.213 42.299 101.388 42.5966 101.633C42.8943 101.878 43.0956 102.202 43.2007 102.605C43.3233 103.007 43.3845 103.497 43.3845 104.075V109.405H45.4331V104.049C45.4331 103.261 45.3456 102.596 45.1705 102.053C45.0129 101.511 44.8028 101.065 44.5401 100.714C44.295 100.347 44.0149 100.076 43.6997 99.9005C43.3845 99.708 43.0781 99.5855 42.7805 99.5329C43.0081 99.4454 43.227 99.3317 43.4371 99.1916C43.6472 99.0341 43.831 98.8241 43.9886 98.5615C44.1462 98.2814 44.2687 97.9314 44.3563 97.5113C44.4614 97.0912 44.5139 96.5661 44.5139 95.936Z" fill="#0F111D"/>
<path d="M57.4545 107.488C55.8086 107.488 54.4954 107.427 53.5149 107.304C52.5519 107.182 51.8165 106.902 51.3088 106.464C50.801 106.009 50.4683 105.362 50.3108 104.521C50.1707 103.664 50.1006 102.509 50.1006 101.056V91.1838H48.2097V101.056C48.2097 102.789 48.3322 104.198 48.5774 105.283C48.8225 106.368 49.2777 107.217 49.9431 107.83C50.6259 108.442 51.5627 108.862 52.7533 109.09C53.9614 109.3 55.5285 109.405 57.4545 109.405H60.2909C62.1994 109.405 63.749 109.3 64.9396 109.09C66.1302 108.862 67.0582 108.442 67.7235 107.83C68.4064 107.217 68.8704 106.368 69.1155 105.283C69.3606 104.198 69.4832 102.789 69.4832 101.056V91.1838H67.5922V101.056C67.5922 102.509 67.5134 103.664 67.3558 104.521C67.2158 105.362 66.8919 106.009 66.3841 106.464C65.8763 106.902 65.1409 107.182 64.178 107.304C63.215 107.427 61.9105 107.488 60.2647 107.488H57.4545Z" fill="#0F111D"/>
<path d="M72.1888 91.1838V109.405H74.0797V92.6278H75.104L84.7165 109.405H86.0297L95.826 92.6278H96.8503V109.405H98.7413V91.1838H94.6704L85.4519 106.727L76.4697 91.1838H72.1888Z" fill="#0F111D"/>
<path d="M101.473 101.056C101.473 102.771 101.587 104.171 101.815 105.257C102.06 106.342 102.48 107.191 103.075 107.803C103.688 108.416 104.511 108.836 105.544 109.064C106.577 109.291 107.882 109.405 109.457 109.405H116.207C117.625 109.405 118.764 109.282 119.622 109.037C120.497 108.792 121.171 108.355 121.644 107.725C122.117 107.077 122.589 106.268 122.589 105.073C122.589 103.878 122.589 102.517 122.589 100.767H111.847V102.657H120.567C120.567 102.975 120.567 103.266 120.567 103.538C120.567 104.645 120.615 105.891 119.832 106.674V106.674C119.499 107.024 119.035 107.261 118.44 107.383C117.862 107.488 117.118 107.541 116.207 107.541H109.247C108.022 107.541 107.024 107.471 106.253 107.331C105.483 107.173 104.879 106.867 104.441 106.412C104.021 105.957 103.732 105.309 103.574 104.469C103.434 103.611 103.364 102.474 103.364 101.056V99.3754C103.364 97.9926 103.452 96.8812 103.627 96.041C103.802 95.1833 104.126 94.527 104.599 94.0719C105.071 93.5993 105.719 93.2842 106.542 93.1267C107.365 92.9691 108.424 92.8904 109.72 92.8904H116.207C117.1 92.8904 117.844 92.9691 118.44 93.1267C119.052 93.2667 119.534 93.4767 119.884 93.7568V93.7568C120.55 94.264 120.625 95.1287 120.64 95.9656C120.642 96.033 120.643 96.1017 120.646 96.1723H122.589C122.589 94.4044 122.257 93.1004 121.171 92.2602C120.085 91.4201 118.431 91 116.207 91H109.983C108.354 91 106.989 91.1225 105.886 91.3676C104.8 91.6126 103.925 92.0502 103.259 92.6803C102.611 93.3105 102.147 94.1681 101.867 95.2533C101.605 96.3386 101.473 97.7213 101.473 99.4017V101.056Z" fill="#0F111D"/>
<path d="M126.333 109.405H128.224V91.1838H126.333V109.405Z" fill="#0F111D"/>
<path d="M151.112 95.8572C151.112 94.3869 150.622 93.2404 149.641 92.4178C148.678 91.5951 147.12 91.1838 144.966 91.1838H132.334V109.405H134.356V101.581H144.966C147.12 101.581 148.678 101.17 149.641 100.347C150.622 99.5242 151.112 98.3777 151.112 96.9074V95.8572ZM134.356 93.0742H144.861C145.684 93.0742 146.367 93.1354 146.91 93.2579C147.453 93.3805 147.882 93.5643 148.197 93.8093C148.512 94.0544 148.731 94.3519 148.853 94.702C148.993 95.0521 149.063 95.4634 149.063 95.936V96.8287C149.063 97.3013 148.993 97.7126 148.853 98.0627C148.731 98.4127 148.512 98.7103 148.197 98.9553C147.882 99.2004 147.453 99.3842 146.91 99.5067C146.367 99.6292 145.684 99.6905 144.861 99.6905H134.356V93.0742Z" fill="#0F111D"/>
<path d="M159.111 91.1838C157.22 91.1838 155.81 91.5689 154.882 92.339C153.972 93.1092 153.516 94.3519 153.516 96.0673C153.516 96.8899 153.604 97.5988 153.779 98.1939C153.972 98.789 154.331 99.2791 154.856 99.6642C155.381 100.049 156.108 100.338 157.036 100.531C157.964 100.723 159.172 100.837 160.66 100.872L167.042 101.029C168.32 101.065 169.353 101.143 170.141 101.266C170.947 101.371 171.568 101.546 172.006 101.791C172.444 102.036 172.733 102.36 172.873 102.762C173.03 103.147 173.109 103.629 173.109 104.206C173.109 105.449 172.768 106.316 172.085 106.806C171.402 107.278 170.343 107.515 168.907 107.515H160.266C159.373 107.515 158.62 107.445 158.007 107.304C157.412 107.147 156.931 106.928 156.563 106.648C156.213 106.368 155.959 106.027 155.801 105.624C155.661 105.204 155.582 104.74 155.565 104.233H153.674C153.674 106 154.208 107.304 155.276 108.145C156.362 108.985 157.815 109.405 159.636 109.405H169.012C170.062 109.405 170.964 109.317 171.717 109.142C172.47 108.967 173.092 108.679 173.582 108.276C174.072 107.873 174.431 107.348 174.659 106.701C174.886 106.035 175 105.222 175 104.259C175 103.331 174.869 102.552 174.606 101.922C174.343 101.292 173.888 100.776 173.24 100.373C172.61 99.9705 171.743 99.673 170.64 99.4804C169.555 99.2879 168.18 99.1741 166.517 99.1391L160.87 99.0078C159.697 98.9903 158.752 98.9291 158.034 98.8241C157.316 98.719 156.764 98.5615 156.379 98.3515C155.994 98.1239 155.74 97.8351 155.617 97.485C155.495 97.1175 155.434 96.6536 155.434 96.0935C155.434 95.6034 155.477 95.1746 155.565 94.807C155.67 94.4219 155.854 94.1069 156.116 93.8618C156.397 93.5993 156.764 93.4067 157.22 93.2842C157.692 93.1442 158.296 93.0742 159.032 93.0742H168.25C169.143 93.0742 169.887 93.1529 170.483 93.3105C171.095 93.4505 171.577 93.6605 171.927 93.9406C172.295 94.2206 172.549 94.562 172.689 94.9645C172.846 95.3671 172.934 95.8222 172.951 96.3298H174.869C174.869 94.597 174.343 93.3105 173.293 92.4703C172.242 91.6126 170.702 91.1838 168.67 91.1838H159.111Z" fill="#0F111D"/>
</svg>
