<svg width="245" height="47" viewBox="0 0 245 47" fill="none" xmlns="http://www.w3.org/2000/svg">
<path d="M3.12462 12.8816V3.59486H22.603C24.8006 3.59486 26.356 4.02282 27.2693 4.87875C28.2111 5.73466 28.682 6.86163 28.682 8.25963C28.682 9.74322 28.2111 10.8844 27.2693 11.6833C26.356 12.4822 24.7293 12.8816 22.389 12.8816H3.12462ZM31.8071 8.04565C31.8071 5.42083 31.008 3.48074 29.4098 2.22539C27.8401 0.941513 25.3001 0.299573 21.7897 0.299573H-0.000488281V30H3.12462V16.2197H23.5449C24.8291 16.2197 25.8851 16.3053 26.7128 16.4765C27.5404 16.6476 28.1968 16.933 28.682 17.3324C29.1672 17.7318 29.4954 18.2596 29.6666 18.9158C29.8664 19.572 29.9663 20.3709 29.9663 21.3124V30H33.3055V21.2696C33.3055 19.9857 33.1628 18.9016 32.8774 18.0171C32.6205 17.1327 32.278 16.4051 31.8499 15.8345C31.4504 15.2354 30.9937 14.7932 30.48 14.5078C29.9663 14.194 29.4669 13.9943 28.9817 13.9087C29.3527 13.766 29.7095 13.5806 30.0519 13.3524C30.3944 13.0956 30.6941 12.7532 30.9509 12.3252C31.2078 11.8688 31.4076 11.2981 31.5503 10.6134C31.7215 9.92867 31.8071 9.07275 31.8071 8.04565Z" fill="#0F111D"/>
<path d="M52.9003 26.8759C50.2175 26.8759 48.077 26.776 46.4788 26.5763C44.9091 26.3766 43.7105 25.9201 42.8828 25.2068C42.0551 24.465 41.5129 23.4094 41.256 22.0399C41.0277 20.6419 40.9136 18.7589 40.9136 16.3909V0.299573H37.8313V16.3909C37.8313 19.2154 38.031 21.5121 38.4306 23.281C38.8301 25.0499 39.5722 26.4337 40.6567 27.4322C41.7697 28.4308 43.2966 29.1155 45.2373 29.4864C47.2066 29.8288 49.7609 30 52.9003 30H57.5237C60.6346 30 63.1603 29.8288 65.101 29.4864C67.0417 29.1155 68.5544 28.4308 69.6389 27.4322C70.7519 26.4337 71.5082 25.0499 71.9078 23.281C72.3073 21.5121 72.5071 19.2154 72.5071 16.3909V0.299573H69.4248V16.3909C69.4248 18.7589 69.2964 20.6419 69.0395 22.0399C68.8112 23.4094 68.2832 24.465 67.4556 25.2068C66.6279 25.9201 65.4293 26.3766 63.8596 26.5763C62.2899 26.776 60.1637 26.8759 57.4809 26.8759H52.9003Z" fill="#0F111D"/>
<path d="M76.9172 0.299573V30H79.9995V2.65335H81.6691L97.3374 30H99.4779L115.446 2.65335H117.116V30H120.198V0.299573H113.562L98.5361 25.6348L83.8952 0.299573H76.9172Z" fill="#0F111D"/>
<path d="M124.651 16.3909C124.651 19.1869 124.837 21.4693 125.208 23.2382C125.607 25.0071 126.292 26.3909 127.262 27.3894C128.261 28.388 129.603 29.0728 131.287 29.4437C132.97 29.8146 135.097 30 137.665 30H148.667C150.979 30 152.834 29.8003 154.233 29.4009C155.66 29.0014 156.758 28.2882 157.529 27.2611C158.299 26.2054 159.07 24.8868 159.07 22.9387C159.07 20.9905 159.07 18.7732 159.07 15.9201H141.561V19.0014H155.774C155.774 19.519 155.774 19.9935 155.774 20.4368C155.774 22.2421 155.852 24.2729 154.575 25.5492C154.033 26.1198 153.276 26.505 152.306 26.7047C151.364 26.8759 150.151 26.9615 148.667 26.9615H137.323C135.325 26.9615 133.698 26.8474 132.442 26.6191C131.187 26.3623 130.202 25.863 129.489 25.1213C128.804 24.3795 128.333 23.3238 128.076 21.9543C127.847 20.5563 127.733 18.7019 127.733 16.3909V13.6519C127.733 11.398 127.876 9.5863 128.161 8.21683C128.447 6.81883 128.975 5.74893 129.745 5.00713C130.516 4.2368 131.572 3.72325 132.913 3.46648C134.255 3.2097 135.981 3.08131 138.093 3.08131H148.667C150.123 3.08131 151.336 3.2097 152.306 3.46648C153.305 3.69472 154.09 4.03709 154.661 4.49358C155.746 5.32028 155.869 6.72971 155.893 8.09385C155.895 8.20378 155.898 8.31575 155.902 8.43081H159.07C159.07 5.54922 158.528 3.42368 156.758 2.05421C154.989 0.684736 152.292 0 148.667 0H138.521C135.867 0 133.641 0.199715 131.843 0.599144C130.074 0.998573 128.647 1.71184 127.562 2.73894C126.506 3.76605 125.75 5.16405 125.293 6.93295C124.865 8.70185 124.651 10.9558 124.651 13.6947V16.3909Z" fill="#0F111D"/>
<path d="M165.173 30H168.255V0.299573H165.173V30Z" fill="#0F111D"/>
<path d="M205.562 7.91726C205.562 5.52068 204.763 3.65193 203.165 2.31098C201.595 0.970044 199.055 0.299573 195.545 0.299573H174.953V30H178.249V17.2468H195.545C199.055 17.2468 201.595 16.5763 203.165 15.2354C204.763 13.8944 205.562 12.0257 205.562 9.6291V7.91726ZM178.249 3.38088H195.373C196.715 3.38088 197.828 3.48074 198.712 3.68046C199.597 3.88017 200.296 4.17974 200.81 4.57917C201.324 4.9786 201.681 5.46362 201.88 6.03424C202.109 6.60485 202.223 7.27532 202.223 8.04565V9.50071C202.223 10.271 202.109 10.9415 201.88 11.5121C201.681 12.0827 201.324 12.5678 200.81 12.9672C200.296 13.3666 199.597 13.6662 198.712 13.8659C197.828 14.0656 196.715 14.1655 195.373 14.1655H178.249V3.38088Z" fill="#0F111D"/>
<path d="M218.6 0.299573C215.517 0.299573 213.22 0.927248 211.707 2.1826C210.223 3.43795 209.481 5.46362 209.481 8.25963C209.481 9.60057 209.624 10.7561 209.909 11.7261C210.223 12.6961 210.808 13.495 211.664 14.1227C212.521 14.7504 213.705 15.2211 215.218 15.5349C216.73 15.8488 218.699 16.0342 221.125 16.0913L231.528 16.3481C233.612 16.4051 235.295 16.5335 236.58 16.7332C237.893 16.9044 238.906 17.1897 239.619 17.5892C240.333 17.9886 240.804 18.5164 241.032 19.1726C241.289 19.8003 241.417 20.5849 241.417 21.5264C241.417 23.5521 240.861 24.9643 239.748 25.7632C238.635 26.5335 236.908 26.9187 234.568 26.9187H220.483C219.028 26.9187 217.8 26.8046 216.802 26.5763C215.831 26.3195 215.046 25.9629 214.447 25.5064C213.876 25.0499 213.462 24.4936 213.206 23.8374C212.977 23.1526 212.849 22.3966 212.82 21.5692H209.738C209.738 24.4508 210.608 26.5763 212.349 27.9458C214.119 29.3153 216.488 30 219.456 30H234.739C236.451 30 237.921 29.8573 239.148 29.572C240.375 29.2867 241.389 28.816 242.188 28.1598C242.987 27.5036 243.572 26.6476 243.943 25.592C244.314 24.5078 244.499 23.1812 244.499 21.612C244.499 20.0999 244.285 18.8302 243.857 17.8031C243.429 16.776 242.687 15.9344 241.631 15.2782C240.604 14.622 239.191 14.1369 237.393 13.8231C235.624 13.5093 233.383 13.3238 230.672 13.2668L221.468 13.0528C219.556 13.0243 218.015 12.9244 216.844 12.7532C215.674 12.582 214.775 12.3252 214.147 11.9829C213.52 11.612 213.106 11.1412 212.906 10.5706C212.706 9.97147 212.606 9.21541 212.606 8.30242C212.606 7.50357 212.678 6.80456 212.82 6.20542C212.992 5.57775 213.291 5.06419 213.719 4.66477C214.176 4.2368 214.775 3.92297 215.517 3.72325C216.288 3.49501 217.273 3.38088 218.471 3.38088H233.497C234.953 3.38088 236.166 3.50927 237.136 3.76605C238.135 3.99429 238.92 4.33666 239.491 4.79315C240.09 5.24964 240.504 5.80599 240.732 6.4622C240.989 7.1184 241.132 7.8602 241.16 8.68759H244.285C244.285 5.86305 243.429 3.76605 241.717 2.39658C240.004 0.998574 237.493 0.299573 234.182 0.299573H218.6Z" fill="#0F111D"/>
<path d="M-0.000488281 45.2123V38.0613H0.537295V41.3099H2.21269L5.18084 38.0613H5.86341L2.66774 41.5551L6.09094 45.2123H5.39802L2.21269 41.8104H0.537295V45.2123H-0.000488281Z" fill="black"/>
<path d="M7.68708 38.8581C8.27312 38.286 9.21079 38 10.5001 38C11.7894 38 12.7236 38.2894 13.3028 38.8683C13.8888 39.4404 14.1818 40.3632 14.1818 41.6368C14.1818 42.9103 13.8888 43.8365 13.3028 44.4154C12.7236 44.9875 11.7894 45.2736 10.5001 45.2736C9.21079 45.2736 8.27312 44.9875 7.68708 44.4154C7.10792 43.8365 6.81835 42.9103 6.81835 41.6368C6.81835 40.3564 7.10792 39.4302 7.68708 38.8581ZM8.10075 39.2565C7.60434 39.7537 7.35613 40.5471 7.35613 41.6368C7.35613 42.7264 7.60434 43.5199 8.10075 44.017C8.60406 44.5142 9.40384 44.7628 10.5001 44.7628C11.5963 44.7628 12.3927 44.5142 12.8891 44.017C13.3924 43.5199 13.6441 42.7264 13.6441 41.6368C13.6441 40.5471 13.3924 39.7537 12.8891 39.2565C12.3927 38.7594 11.5963 38.5108 10.5001 38.5108C9.40384 38.5108 8.60406 38.7594 8.10075 39.2565Z" fill="black"/>
<path d="M16.5451 45.2123H16.0074V38.0613H16.8657L20.1752 44.6708L23.4639 38.0613H24.3223V45.2123H23.7845V38.5721L20.4958 45.2123H19.8339L16.5451 38.5619V45.2123Z" fill="black"/>
<path d="M26.521 45.2123V38.0613H33.1296V45.2123H32.5918V38.5721H27.0588V45.2123H26.521Z" fill="black"/>
<path d="M34.78 45.2123V44.681H35.1523C35.3798 44.681 35.5591 44.5959 35.6901 44.4257C35.8211 44.2554 35.9383 43.874 36.0417 43.2815C36.1451 42.689 36.221 41.8309 36.2692 40.7072L36.3727 38.0613H41.4816V45.2123H40.9438V38.5721H36.8794L36.7967 40.748C36.7484 41.9671 36.6588 42.9035 36.5278 43.5573C36.3968 44.2043 36.2279 44.6436 36.021 44.8751C35.8211 45.0999 35.5418 45.2123 35.1833 45.2123H34.78Z" fill="black"/>
<path d="M49.5131 45.2123H43.6802V38.0613H49.5131V38.5721H44.218V41.3916H48.996V41.882H44.218V44.7015H49.5131V45.2123Z" fill="black"/>
<path d="M51.4266 45.2123V38.0613H51.9644V41.3099H53.6398L56.6079 38.0613H57.2905L54.0948 41.5551L57.518 45.2123H56.8251L53.6398 41.8104H51.9644V45.2123H51.4266Z" fill="black"/>
<path d="M58.1352 38.5721V38.0613H65.4056V38.5721H62.0342V45.2123H61.4964V38.5721H58.1352Z" fill="black"/>
<path d="M69.4965 43.6799L66.0526 38.0613H66.6731L69.786 43.1896L72.8162 38.0613H73.4161L69.8274 44.1294C69.5999 44.5108 69.3551 44.7866 69.0931 44.9569C68.8311 45.1271 68.514 45.2123 68.1417 45.2123H67.4074V44.7526H68.1106C68.3864 44.7526 68.6174 44.6879 68.8036 44.5585C68.9966 44.4291 69.1793 44.2145 69.3517 43.9149L69.4965 43.6799Z" fill="black"/>
<path d="M75.3651 45.2123H74.8273V38.0613H75.3651V41.3814H77.4128C77.4473 40.1964 77.7507 39.3383 78.3229 38.807C78.9021 38.269 79.8087 38 81.0429 38C82.3184 38 83.2423 38.2894 83.8145 38.8683C84.3868 39.4404 84.6729 40.3632 84.6729 41.6368C84.6729 42.9103 84.3833 43.8365 83.8042 44.4154C83.2319 44.9875 82.3115 45.2736 81.0429 45.2736C79.8156 45.2736 78.9124 45.0045 78.3333 44.4665C77.7541 43.9285 77.4473 43.0704 77.4128 41.8922H75.3651V45.2123ZM78.6849 44.0272C79.1744 44.5176 79.9604 44.7628 81.0429 44.7628C82.1253 44.7628 82.9113 44.5142 83.4008 44.017C83.8904 43.5199 84.1351 42.7264 84.1351 41.6368C84.1351 40.5471 83.8904 39.7537 83.4008 39.2565C82.9113 38.7594 82.1253 38.5108 81.0429 38.5108C79.9604 38.5108 79.1744 38.7594 78.6849 39.2565C78.1954 39.7469 77.9506 40.5403 77.9506 41.6368C77.9506 42.7333 78.1954 43.5301 78.6849 44.0272Z" fill="black"/>
<path d="M86.5025 38.0613H87.0403V44.7015H91.1047V38.0613H91.6424V44.7015H95.7068V38.0613H96.2446V44.7015H97.5374V47H96.9996V45.2123H86.5025V38.0613Z" fill="black"/>
<path d="M99.1371 45.2123V38.0613H99.6748V44.4359L105.322 38.0613H105.859V45.2123H105.322V38.8377L99.6748 45.2123H99.1371Z" fill="black"/>
<path d="M113.888 45.2123H108.055V38.0613H113.888V38.5721H108.593V41.3916H113.371V41.882H108.593V44.7015H113.888V45.2123Z" fill="black"/>
<path d="M118.679 47H118.141V44.7015H118.999C119.192 44.6266 119.344 44.4938 119.454 44.3031C119.571 44.1124 119.675 43.731 119.764 43.1589C119.861 42.58 119.93 41.773 119.971 40.7378L120.075 38.0613H125.194L125.184 44.7015H126.487V47H125.949V45.2123H118.679V47ZM119.764 44.7015H124.646V38.5721H120.592L120.499 40.7378C120.416 42.8627 120.171 44.1839 119.764 44.7015Z" fill="black"/>
<path d="M127.555 45.2123V44.681H127.927C128.155 44.681 128.334 44.5959 128.465 44.4257C128.596 44.2554 128.713 43.874 128.817 43.2815C128.92 42.689 128.996 41.8309 129.044 40.7072L129.147 38.0613H134.256V45.2123H133.719V38.5721H129.654L129.571 40.748C129.523 41.9671 129.434 42.9035 129.303 43.5573C129.172 44.2043 129.003 44.6436 128.796 44.8751C128.596 45.0999 128.317 45.2123 127.958 45.2123H127.555Z" fill="black"/>
<path d="M136.589 45.2123H135.897L138.575 42.2293H138.565C137.731 42.2293 137.124 42.0658 136.745 41.7389C136.365 41.4052 136.176 40.874 136.176 40.1453C136.176 39.4166 136.365 38.8888 136.745 38.5619C137.124 38.2281 137.731 38.0613 138.565 38.0613H142.184V45.2123H141.647V42.2293H139.258L136.589 45.2123ZM138.585 41.7185H141.647V38.5721H138.585C137.93 38.5721 137.455 38.6981 137.158 38.9501C136.869 39.1952 136.724 39.5936 136.724 40.1453C136.724 40.6969 136.869 41.0988 137.158 41.3507C137.455 41.5959 137.93 41.7185 138.585 41.7185Z" fill="black"/>
<path d="M147.302 45.2123V38.0613H152.432V38.5721H147.84V45.2123H147.302Z" fill="black"/>
<path d="M153.867 45.2123V38.0613H154.405V44.4359L160.051 38.0613H160.589V45.2123H160.051V38.8377L154.405 45.2123H153.867Z" fill="black"/>
<path d="M162.785 45.2123V38.0613H169.393V45.2123H168.855V38.5721H163.322V45.2123H162.785Z" fill="black"/>
<path d="M171.219 41.6368C171.219 40.3564 171.509 39.4302 172.088 38.8581C172.674 38.286 173.612 38 174.901 38C175.928 38 176.725 38.1805 177.29 38.5414C177.862 38.8956 178.242 39.4608 178.428 40.2372H177.869C177.683 39.6447 177.349 39.2089 176.866 38.9296C176.39 38.6504 175.735 38.5108 174.901 38.5108C173.805 38.5108 173.005 38.7594 172.502 39.2565C172.005 39.7537 171.757 40.5471 171.757 41.6368C171.757 42.7264 172.005 43.5199 172.502 44.017C173.005 44.5142 173.805 44.7628 174.901 44.7628C175.735 44.7628 176.394 44.6232 176.876 44.3439C177.359 44.0647 177.69 43.622 177.869 43.0159H178.438C178.245 43.7991 177.862 44.3712 177.29 44.7321C176.725 45.0931 175.928 45.2736 174.901 45.2736C173.612 45.2736 172.674 44.9875 172.088 44.4154C171.509 43.8365 171.219 42.9103 171.219 41.6368Z" fill="black"/>
<path d="M180.774 38.8581C181.36 38.286 182.298 38 183.587 38C184.876 38 185.81 38.2894 186.389 38.8683C186.976 39.4404 187.269 40.3632 187.269 41.6368C187.269 42.9103 186.976 43.8365 186.389 44.4154C185.81 44.9875 184.876 45.2736 183.587 45.2736C182.298 45.2736 181.36 44.9875 180.774 44.4154C180.195 43.8365 179.905 42.9103 179.905 41.6368C179.905 40.3564 180.195 39.4302 180.774 38.8581ZM181.187 39.2565C180.691 39.7537 180.443 40.5471 180.443 41.6368C180.443 42.7264 180.691 43.5199 181.187 44.017C181.691 44.5142 182.491 44.7628 183.587 44.7628C184.683 44.7628 185.479 44.5142 185.976 44.017C186.479 43.5199 186.731 42.7264 186.731 41.6368C186.731 40.5471 186.479 39.7537 185.976 39.2565C185.479 38.7594 184.683 38.5108 183.587 38.5108C182.491 38.5108 181.691 38.7594 181.187 39.2565Z" fill="black"/>
<path d="M189.094 45.2123V38.0613H189.632V41.3099H191.307L194.275 38.0613H194.958L191.762 41.5551L195.186 45.2123H194.493L191.307 41.8104H189.632V45.2123H189.094Z" fill="black"/>
<path d="M196.351 45.2123H195.772L199.257 38.0613H199.929L203.414 45.2123H202.835L201.936 43.3734L197.251 43.3837L196.351 45.2123ZM199.598 38.5721L197.499 42.8729L201.687 42.8627L199.598 38.5721Z" fill="black"/>
<path d="M204.819 45.2123V38.0613H208.315C209.149 38.0613 209.756 38.2316 210.135 38.5721C210.514 38.9126 210.704 39.454 210.704 40.1964C210.704 40.9455 210.514 41.4904 210.135 41.8309C209.756 42.1646 209.149 42.3314 208.315 42.3314H205.357V45.2123H204.819ZM208.294 38.5721H205.357V41.8207H208.294C208.949 41.8207 209.425 41.6947 209.721 41.4427C210.018 41.1839 210.166 40.7684 210.166 40.1964C210.166 39.6311 210.018 39.2191 209.721 38.9603C209.425 38.7015 208.949 38.5721 208.294 38.5721Z" fill="black"/>
<path d="M211.548 38.5721V38.0613H218.818V38.5721H215.447V45.2123H214.909V38.5721H211.548Z" fill="black"/>
<path d="M220.364 38.8581C220.95 38.286 221.888 38 223.177 38C224.466 38 225.401 38.2894 225.98 38.8683C226.566 39.4404 226.859 40.3632 226.859 41.6368C226.859 42.9103 226.566 43.8365 225.98 44.4154C225.401 44.9875 224.466 45.2736 223.177 45.2736C221.888 45.2736 220.95 44.9875 220.364 44.4154C219.785 43.8365 219.495 42.9103 219.495 41.6368C219.495 40.3564 219.785 39.4302 220.364 38.8581ZM220.778 39.2565C220.281 39.7537 220.033 40.5471 220.033 41.6368C220.033 42.7264 220.281 43.5199 220.778 44.017C221.281 44.5142 222.081 44.7628 223.177 44.7628C224.273 44.7628 225.07 44.5142 225.566 44.017C226.069 43.5199 226.321 42.7264 226.321 41.6368C226.321 40.5471 226.069 39.7537 225.566 39.2565C225.07 38.7594 224.273 38.5108 223.177 38.5108C222.081 38.5108 221.281 38.7594 220.778 39.2565Z" fill="black"/>
<path d="M229.222 45.2123H228.684V38.0613H229.222V41.3814H234.91V38.0613H235.448V45.2123H234.91V41.8922H229.222V45.2123Z" fill="black"/>
<path d="M237.436 45.2123H236.857L240.342 38.0613H241.014L244.5 45.2123H243.92L243.021 43.3734L238.336 43.3837L237.436 45.2123ZM240.683 38.5721L238.584 42.8729L242.772 42.8627L240.683 38.5721Z" fill="black"/>
</svg>
